<?xml version="1.0" encoding="utf-8" standalone="no"?>
<!DOCTYPE svg PUBLIC "-//W3C//DTD SVG 1.1//EN"
  "http://www.w3.org/Graphics/SVG/1.1/DTD/svg11.dtd">
<svg xmlns:xlink="http://www.w3.org/1999/xlink" width="702.317031pt" height="322.161735pt" viewBox="0 0 702.317031 322.161735" xmlns="http://www.w3.org/2000/svg" version="1.1">
 <metadata>
  <rdf:RDF xmlns:dc="http://purl.org/dc/elements/1.1/" xmlns:cc="http://creativecommons.org/ns#" xmlns:rdf="http://www.w3.org/1999/02/22-rdf-syntax-ns#">
   <cc:Work>
    <dc:type rdf:resource="http://purl.org/dc/dcmitype/StillImage"/>
    <dc:date>2026-05-12T17:37:26.616444</dc:date>
    <dc:format>image/svg+xml</dc:format>
    <dc:creator>
     <cc:Agent>
      <dc:title>Matplotlib v3.10.0, https://matplotlib.org/</dc:title>
     </cc:Agent>
    </dc:creator>
   </cc:Work>
  </rdf:RDF>
 </metadata>
 <defs>
  <style type="text/css">*{stroke-linejoin: round; stroke-linecap: butt}</style>
 </defs>
 <g id="figure_1">
  <g id="patch_1">
   <path d="M 0 322.161735 
L 702.317031 322.161735 
L 702.317031 0 
L 0 0 
z
" style="fill: #1b1b1b"/>
  </g>
  <g id="axes_1">
   <g id="patch_2">
    <path d="M 51.477031 277.093747 
L 695.117031 277.093747 
L 695.117031 35.027187 
L 51.477031 35.027187 
z
" style="fill: #1e1e1e"/>
   </g>
   <g id="matplotlib.axis_1">
    <g id="xtick_1">
     <g id="line2d_1">
      <path d="M 106.201985 277.093747 
L 106.201985 35.027187 
" clip-path="url(#p70af6788a7)" style="fill: none; stroke: #2e2e2e; stroke-width: 0.5; stroke-linecap: square"/>
     </g>
     <g id="line2d_2"/>
     <g id="text_1">
      <!-- −300 -->
      <g style="fill: #b0b0b0" transform="translate(95.301438 287.397185) scale(0.09 -0.09)">
       <defs>
        <path id="Georgia-2212" d="M 3650 1553 
L 466 1553 
L 466 1944 
L 3650 1944 
L 3650 1553 
z
" transform="scale(0.015625)"/>
        <path id="Georgia-33" d="M 1522 -1141 
Q 1228 -1141 984 -1067 
Q 741 -994 566 -869 
Q 391 -744 295 -581 
Q 200 -419 200 -247 
Q 200 -94 275 29 
Q 350 153 516 153 
Q 703 153 801 61 
Q 900 -31 900 -150 
Q 900 -250 867 -403 
Q 834 -556 816 -622 
Q 838 -650 895 -697 
Q 953 -744 1038 -781 
Q 1138 -828 1247 -856 
Q 1356 -884 1556 -884 
Q 1744 -884 1917 -821 
Q 2091 -759 2222 -622 
Q 2359 -478 2436 -286 
Q 2513 -94 2513 219 
Q 2513 388 2477 553 
Q 2441 719 2344 841 
Q 2247 963 2080 1030 
Q 1913 1097 1656 1097 
L 1247 1097 
L 1247 1456 
L 1519 1456 
Q 1950 1456 2140 1693 
Q 2331 1931 2331 2409 
Q 2331 2800 2147 2998 
Q 1963 3197 1625 3197 
Q 1463 3197 1358 3158 
Q 1253 3119 1188 3081 
Q 1109 3038 1059 2984 
Q 1009 2931 984 2906 
Q 1006 2806 1037 2661 
Q 1069 2516 1069 2384 
Q 1069 2269 970 2176 
Q 872 2084 681 2084 
Q 516 2084 439 2203 
Q 363 2322 363 2478 
Q 363 2641 453 2809 
Q 544 2978 722 3125 
Q 900 3272 1156 3362 
Q 1413 3453 1747 3453 
Q 2131 3453 2382 3339 
Q 2634 3225 2778 3063 
Q 2919 2903 2972 2728 
Q 3025 2553 3025 2428 
Q 3025 2272 2981 2114 
Q 2938 1956 2838 1822 
Q 2728 1675 2548 1554 
Q 2369 1434 2097 1359 
L 2097 1309 
Q 2272 1294 2470 1231 
Q 2669 1169 2828 1047 
Q 2994 919 3100 717 
Q 3206 516 3206 206 
Q 3206 -394 2725 -767 
Q 2244 -1141 1522 -1141 
z
" transform="scale(0.015625)"/>
        <path id="Georgia-30" d="M 3209 2919 
Q 3409 2678 3507 2354 
Q 3606 2031 3606 1678 
Q 3606 1253 3484 917 
Q 3363 581 3150 359 
Q 2931 131 2631 15 
Q 2331 -100 1963 -100 
Q 1559 -100 1243 34 
Q 928 169 731 403 
Q 525 647 423 973 
Q 322 1300 322 1678 
Q 322 2050 420 2362 
Q 519 2675 728 2928 
Q 928 3172 1243 3312 
Q 1559 3453 1966 3453 
Q 2394 3453 2700 3309 
Q 3006 3166 3209 2919 
z
M 2916 1678 
Q 2916 2422 2661 2831 
Q 2406 3241 1969 3241 
Q 1525 3241 1269 2831 
Q 1013 2422 1013 1678 
Q 1013 972 1258 542 
Q 1503 113 1963 113 
Q 2422 113 2669 542 
Q 2916 972 2916 1678 
z
" transform="scale(0.015625)"/>
       </defs>
       <use xlink:href="#Georgia-2212"/>
       <use xlink:href="#Georgia-33" transform="translate(64.306641 0)"/>
       <use xlink:href="#Georgia-30" transform="translate(119.482422 0)"/>
       <use xlink:href="#Georgia-30" transform="translate(180.859375 0)"/>
      </g>
     </g>
    </g>
    <g id="xtick_2">
     <g id="line2d_3">
      <path d="M 234.331465 277.093747 
L 234.331465 35.027187 
" clip-path="url(#p70af6788a7)" style="fill: none; stroke: #2e2e2e; stroke-width: 0.5; stroke-linecap: square"/>
     </g>
     <g id="line2d_4"/>
     <g id="text_2">
      <!-- −200 -->
      <g style="fill: #b0b0b0" transform="translate(223.399981 287.397185) scale(0.09 -0.09)">
       <defs>
        <path id="Georgia-32" d="M 3272 0 
L 344 0 
L 344 425 
Q 428 522 578 642 
Q 728 763 934 903 
Q 1059 988 1234 1088 
Q 1409 1188 1631 1306 
Q 1878 1438 2011 1538 
Q 2144 1638 2253 1784 
Q 2325 1881 2369 2026 
Q 2413 2172 2413 2441 
Q 2413 2831 2203 3014 
Q 1994 3197 1666 3197 
Q 1463 3197 1281 3117 
Q 1100 3038 1009 2897 
Q 1031 2797 1064 2659 
Q 1097 2522 1097 2391 
Q 1097 2272 998 2180 
Q 900 2088 706 2088 
Q 550 2088 465 2195 
Q 381 2303 381 2484 
Q 381 2653 475 2823 
Q 569 2994 744 3138 
Q 916 3278 1169 3365 
Q 1422 3453 1716 3453 
Q 2356 3453 2732 3167 
Q 3109 2881 3109 2403 
Q 3109 2175 3042 1987 
Q 2975 1800 2825 1656 
Q 2659 1497 2437 1383 
Q 2216 1269 1759 1066 
Q 1488 944 1253 811 
Q 1019 678 869 553 
L 3272 553 
L 3272 0 
z
" transform="scale(0.015625)"/>
       </defs>
       <use xlink:href="#Georgia-2212"/>
       <use xlink:href="#Georgia-32" transform="translate(64.306641 0)"/>
       <use xlink:href="#Georgia-30" transform="translate(120.166016 0)"/>
       <use xlink:href="#Georgia-30" transform="translate(181.542969 0)"/>
      </g>
     </g>
    </g>
    <g id="xtick_3">
     <g id="line2d_5">
      <path d="M 362.460945 277.093747 
L 362.460945 35.027187 
" clip-path="url(#p70af6788a7)" style="fill: none; stroke: #2e2e2e; stroke-width: 0.5; stroke-linecap: square"/>
     </g>
     <g id="line2d_6"/>
     <g id="text_3">
      <!-- −100 -->
      <g style="fill: #b0b0b0" transform="translate(352.109539 287.397185) scale(0.09 -0.09)">
       <defs>
        <path id="Georgia-31" d="M 2528 0 
L 422 0 
L 422 222 
Q 516 228 714 248 
Q 913 269 988 291 
Q 1084 322 1136 392 
Q 1188 463 1188 603 
L 1188 2797 
L 409 2797 
L 409 3059 
L 581 3059 
Q 919 3059 1186 3184 
Q 1453 3309 1569 3453 
L 1828 3453 
Q 1819 3250 1809 2978 
Q 1800 2706 1800 2491 
L 1800 638 
Q 1800 528 1848 442 
Q 1897 356 1988 316 
Q 2069 281 2253 253 
Q 2438 225 2528 222 
L 2528 0 
z
" transform="scale(0.015625)"/>
       </defs>
       <use xlink:href="#Georgia-2212"/>
       <use xlink:href="#Georgia-31" transform="translate(64.306641 0)"/>
       <use xlink:href="#Georgia-30" transform="translate(107.275391 0)"/>
       <use xlink:href="#Georgia-30" transform="translate(168.652344 0)"/>
      </g>
     </g>
    </g>
    <g id="xtick_4">
     <g id="line2d_7">
      <path d="M 490.590426 277.093747 
L 490.590426 35.027187 
" clip-path="url(#p70af6788a7)" style="fill: none; stroke: #2e2e2e; stroke-width: 0.5; stroke-linecap: square"/>
     </g>
     <g id="line2d_8"/>
     <g id="text_4">
      <!-- 0 -->
      <g style="fill: #b0b0b0" transform="translate(487.828551 287.397185) scale(0.09 -0.09)">
       <use xlink:href="#Georgia-30"/>
      </g>
     </g>
    </g>
    <g id="xtick_5">
     <g id="line2d_9">
      <path d="M 618.719906 277.093747 
L 618.719906 35.027187 
" clip-path="url(#p70af6788a7)" style="fill: none; stroke: #2e2e2e; stroke-width: 0.5; stroke-linecap: square"/>
     </g>
     <g id="line2d_10"/>
     <g id="text_5">
      <!-- 100 -->
      <g style="fill: #b0b0b0" transform="translate(611.262562 287.397185) scale(0.09 -0.09)">
       <use xlink:href="#Georgia-31"/>
       <use xlink:href="#Georgia-30" transform="translate(42.96875 0)"/>
       <use xlink:href="#Georgia-30" transform="translate(104.345703 0)"/>
      </g>
     </g>
    </g>
    <g id="text_6">
     <!-- Mean arrival delay (seconds) -->
     <g style="fill: #b0b0b0" transform="translate(312.840664 310.530466) scale(0.095 -0.095)">
      <defs>
       <path id="Georgia-4d" d="M 5644 0 
L 3684 0 
L 3684 222 
Q 3791 225 3958 244 
Q 4125 263 4188 297 
Q 4284 356 4329 432 
Q 4375 509 4375 625 
L 4375 3850 
L 4328 3850 
L 2816 72 
L 2659 72 
L 1219 3928 
L 1178 3928 
L 1178 1281 
Q 1178 897 1226 697 
Q 1275 497 1375 409 
Q 1444 344 1659 284 
Q 1875 225 1941 222 
L 1941 0 
L 150 0 
L 150 222 
Q 291 234 445 268 
Q 600 303 684 372 
Q 794 459 834 640 
Q 875 822 875 1247 
L 875 3516 
Q 875 3713 828 3838 
Q 781 3963 694 4041 
Q 597 4125 456 4165 
Q 316 4206 178 4213 
L 178 4434 
L 1691 4434 
L 2959 1109 
L 4044 3891 
Q 4103 4044 4145 4211 
Q 4188 4378 4191 4434 
L 5638 4434 
L 5638 4213 
Q 5550 4209 5414 4184 
Q 5278 4159 5216 4138 
Q 5109 4100 5071 4012 
Q 5034 3925 5034 3822 
L 5034 625 
Q 5034 516 5071 441 
Q 5109 366 5216 309 
Q 5272 278 5415 251 
Q 5559 225 5644 222 
L 5644 0 
z
" transform="scale(0.015625)"/>
       <path id="Georgia-65" d="M 2963 725 
Q 2769 356 2444 137 
Q 2119 -81 1697 -81 
Q 1325 -81 1045 50 
Q 766 181 584 406 
Q 403 631 314 931 
Q 225 1231 225 1566 
Q 225 1866 320 2155 
Q 416 2444 600 2675 
Q 778 2897 1042 3033 
Q 1306 3169 1634 3169 
Q 1972 3169 2212 3062 
Q 2453 2956 2603 2772 
Q 2747 2597 2817 2359 
Q 2888 2122 2888 1844 
L 2888 1638 
L 847 1638 
Q 847 1334 905 1087 
Q 963 841 1088 653 
Q 1209 472 1406 367 
Q 1603 263 1875 263 
Q 2153 263 2354 392 
Q 2556 522 2744 859 
L 2963 725 
z
M 2272 1900 
Q 2272 2075 2242 2275 
Q 2213 2475 2147 2609 
Q 2075 2753 1950 2843 
Q 1825 2934 1628 2934 
Q 1300 2934 1083 2661 
Q 866 2388 847 1900 
L 2272 1900 
z
" transform="scale(0.015625)"/>
       <path id="Georgia-61" d="M 3144 56 
Q 2997 3 2886 -30 
Q 2775 -63 2634 -63 
Q 2391 -63 2245 51 
Q 2100 166 2059 384 
L 2041 384 
Q 1838 159 1605 40 
Q 1372 -78 1044 -78 
Q 697 -78 473 134 
Q 250 347 250 691 
Q 250 869 300 1009 
Q 350 1150 450 1263 
Q 528 1356 656 1429 
Q 784 1503 897 1547 
Q 1038 1600 1467 1744 
Q 1897 1888 2047 1969 
L 2047 2278 
Q 2047 2319 2030 2434 
Q 2013 2550 1956 2653 
Q 1894 2769 1780 2855 
Q 1666 2941 1456 2941 
Q 1313 2941 1189 2892 
Q 1066 2844 1016 2791 
Q 1016 2728 1045 2606 
Q 1075 2484 1075 2381 
Q 1075 2272 976 2181 
Q 878 2091 703 2091 
Q 547 2091 473 2202 
Q 400 2313 400 2450 
Q 400 2594 501 2725 
Q 603 2856 766 2959 
Q 906 3047 1106 3108 
Q 1306 3169 1497 3169 
Q 1759 3169 1954 3133 
Q 2150 3097 2309 2978 
Q 2469 2863 2551 2664 
Q 2634 2466 2634 2153 
Q 2634 1706 2625 1361 
Q 2616 1016 2616 606 
Q 2616 484 2658 412 
Q 2700 341 2788 291 
Q 2834 263 2936 259 
Q 3038 256 3144 256 
L 3144 56 
z
M 2053 1706 
Q 1788 1628 1588 1553 
Q 1388 1478 1216 1366 
Q 1059 1259 968 1114 
Q 878 969 878 769 
Q 878 509 1014 387 
Q 1150 266 1359 266 
Q 1581 266 1750 373 
Q 1919 481 2034 628 
L 2053 1706 
z
" transform="scale(0.015625)"/>
       <path id="Georgia-6e" d="M 3628 0 
L 2119 0 
L 2119 206 
Q 2191 213 2277 219 
Q 2363 225 2419 244 
Q 2506 272 2548 342 
Q 2591 413 2591 525 
L 2591 2109 
Q 2591 2438 2436 2616 
Q 2281 2794 2059 2794 
Q 1894 2794 1756 2742 
Q 1619 2691 1513 2616 
Q 1409 2544 1348 2461 
Q 1288 2378 1259 2328 
L 1259 556 
Q 1259 450 1303 381 
Q 1347 313 1434 275 
Q 1500 244 1576 228 
Q 1653 213 1734 206 
L 1734 0 
L 225 0 
L 225 206 
Q 297 213 373 219 
Q 450 225 506 244 
Q 594 272 636 342 
Q 678 413 678 525 
L 678 2428 
Q 678 2534 633 2623 
Q 588 2713 506 2769 
Q 447 2806 365 2823 
Q 284 2841 191 2847 
L 191 3050 
L 1216 3119 
L 1259 3075 
L 1259 2641 
L 1275 2641 
Q 1350 2716 1462 2820 
Q 1575 2925 1675 2991 
Q 1791 3066 1950 3116 
Q 2109 3166 2309 3166 
Q 2753 3166 2967 2889 
Q 3181 2613 3181 2153 
L 3181 550 
Q 3181 441 3218 373 
Q 3256 306 3347 269 
Q 3422 238 3476 225 
Q 3531 213 3628 206 
L 3628 0 
z
" transform="scale(0.015625)"/>
       <path id="Georgia-20" transform="scale(0.015625)"/>
       <path id="Georgia-72" d="M 2584 2684 
Q 2584 2525 2506 2401 
Q 2428 2278 2266 2278 
Q 2091 2278 1998 2368 
Q 1906 2459 1906 2569 
Q 1906 2638 1917 2694 
Q 1928 2750 1938 2806 
Q 1791 2806 1594 2687 
Q 1397 2569 1259 2350 
L 1259 556 
Q 1259 447 1301 378 
Q 1344 309 1434 275 
Q 1513 244 1636 228 
Q 1759 213 1850 206 
L 1850 0 
L 225 0 
L 225 206 
Q 297 213 373 219 
Q 450 225 506 244 
Q 594 272 636 342 
Q 678 413 678 525 
L 678 2428 
Q 678 2525 633 2619 
Q 588 2713 506 2769 
Q 447 2806 365 2823 
Q 284 2841 191 2847 
L 191 3050 
L 1216 3119 
L 1259 3075 
L 1259 2641 
L 1275 2641 
Q 1469 2894 1706 3025 
Q 1944 3156 2141 3156 
Q 2338 3156 2461 3028 
Q 2584 2900 2584 2684 
z
" transform="scale(0.015625)"/>
       <path id="Georgia-69" d="M 1722 0 
L 231 0 
L 231 206 
Q 303 213 379 219 
Q 456 225 513 244 
Q 600 272 642 342 
Q 684 413 684 525 
L 684 2428 
Q 684 2528 639 2611 
Q 594 2694 513 2750 
Q 453 2788 340 2814 
Q 228 2841 134 2847 
L 134 3050 
L 1222 3119 
L 1266 3075 
L 1266 563 
Q 1266 453 1308 381 
Q 1350 309 1441 275 
Q 1509 247 1575 230 
Q 1641 213 1722 206 
L 1722 0 
z
M 1328 4334 
Q 1328 4156 1211 4023 
Q 1094 3891 922 3891 
Q 763 3891 645 4017 
Q 528 4144 528 4306 
Q 528 4478 645 4606 
Q 763 4734 922 4734 
Q 1100 4734 1214 4614 
Q 1328 4494 1328 4334 
z
" transform="scale(0.015625)"/>
       <path id="Georgia-76" d="M 3269 2891 
Q 3128 2866 3001 2789 
Q 2875 2713 2784 2519 
Q 2600 2100 2403 1645 
Q 2206 1191 1994 691 
Q 1931 547 1861 350 
Q 1791 153 1731 -28 
L 1488 -28 
Q 1191 706 941 1311 
Q 691 1916 422 2550 
Q 359 2694 220 2773 
Q 81 2853 -59 2875 
L -59 3081 
L 1366 3081 
L 1366 2863 
Q 1272 2859 1131 2823 
Q 991 2788 991 2725 
Q 991 2716 1006 2677 
Q 1022 2638 1038 2588 
Q 1166 2269 1400 1697 
Q 1634 1125 1781 775 
Q 1894 1044 2064 1444 
Q 2234 1844 2431 2338 
Q 2463 2422 2491 2495 
Q 2519 2569 2519 2644 
Q 2519 2697 2467 2739 
Q 2416 2781 2344 2813 
Q 2272 2844 2203 2859 
Q 2134 2875 2091 2881 
L 2091 3081 
L 3269 3081 
L 3269 2891 
z
" transform="scale(0.015625)"/>
       <path id="Georgia-6c" d="M 1669 0 
L 166 0 
L 166 206 
Q 238 213 319 220 
Q 400 228 453 244 
Q 541 272 584 342 
Q 628 413 628 525 
L 628 4094 
Q 628 4206 579 4304 
Q 531 4403 453 4459 
Q 397 4497 247 4528 
Q 97 4559 6 4566 
L 6 4766 
L 1166 4838 
L 1209 4791 
L 1209 563 
Q 1209 453 1250 383 
Q 1291 313 1381 275 
Q 1450 244 1517 228 
Q 1584 213 1669 206 
L 1669 0 
z
" transform="scale(0.015625)"/>
       <path id="Georgia-64" d="M 3600 56 
L 2525 -13 
L 2478 31 
L 2478 319 
L 2453 325 
Q 2291 144 2052 28 
Q 1813 -88 1559 -88 
Q 1297 -88 1051 29 
Q 806 147 625 359 
Q 441 575 333 878 
Q 225 1181 225 1547 
Q 225 1881 340 2181 
Q 456 2481 659 2706 
Q 850 2916 1126 3041 
Q 1403 3166 1691 3166 
Q 1906 3166 2114 3111 
Q 2322 3056 2472 2972 
L 2472 4044 
Q 2472 4175 2428 4283 
Q 2384 4391 2306 4447 
Q 2219 4506 2070 4532 
Q 1922 4559 1750 4572 
L 1750 4766 
L 3009 4838 
L 3056 4791 
L 3056 634 
Q 3056 525 3098 448 
Q 3141 372 3222 319 
Q 3281 281 3393 272 
Q 3506 263 3600 259 
L 3600 56 
z
M 2472 597 
L 2472 2400 
Q 2447 2481 2390 2575 
Q 2334 2669 2250 2747 
Q 2159 2825 2037 2876 
Q 1916 2928 1753 2928 
Q 1566 2928 1408 2831 
Q 1250 2734 1128 2553 
Q 1013 2378 945 2108 
Q 878 1838 878 1509 
Q 878 1247 928 1033 
Q 978 819 1097 634 
Q 1206 459 1376 353 
Q 1547 247 1781 247 
Q 2031 247 2195 356 
Q 2359 466 2472 597 
z
" transform="scale(0.015625)"/>
       <path id="Georgia-79" d="M -9 -1006 
Q -9 -850 77 -751 
Q 163 -653 291 -653 
Q 391 -653 462 -690 
Q 534 -728 591 -788 
Q 638 -834 691 -915 
Q 744 -997 775 -1050 
Q 931 -966 1148 -609 
Q 1366 -253 1463 16 
Q 1166 756 925 1340 
Q 684 1925 422 2550 
Q 363 2694 222 2773 
Q 81 2853 -59 2875 
L -59 3081 
L 1347 3081 
L 1347 2863 
Q 1253 2859 1122 2823 
Q 991 2788 991 2741 
Q 991 2722 1005 2678 
Q 1019 2634 1038 2588 
Q 1156 2278 1400 1695 
Q 1644 1113 1778 763 
Q 1919 1097 2070 1455 
Q 2222 1813 2409 2300 
Q 2431 2359 2472 2464 
Q 2513 2569 2513 2644 
Q 2513 2725 2370 2795 
Q 2228 2866 2100 2881 
L 2100 3081 
L 3244 3081 
L 3244 2888 
Q 3150 2872 2997 2780 
Q 2844 2688 2769 2519 
Q 2397 1656 2108 947 
Q 1819 238 1669 -97 
Q 1472 -534 1317 -779 
Q 1163 -1025 1016 -1166 
Q 872 -1297 755 -1342 
Q 638 -1388 513 -1388 
Q 269 -1388 130 -1272 
Q -9 -1156 -9 -1006 
z
" transform="scale(0.015625)"/>
       <path id="Georgia-28" d="M 2191 -1025 
Q 1338 -919 852 -165 
Q 366 588 366 1863 
Q 366 3159 852 3917 
Q 1338 4675 2191 4788 
L 2191 4528 
Q 1591 4419 1278 3762 
Q 966 3106 966 1856 
Q 966 666 1272 5 
Q 1578 -656 2191 -769 
L 2191 -1025 
z
" transform="scale(0.015625)"/>
       <path id="Georgia-73" d="M 2259 1509 
Q 2388 1397 2456 1250 
Q 2525 1103 2525 891 
Q 2525 463 2204 191 
Q 1884 -81 1375 -81 
Q 1106 -81 879 16 
Q 653 113 556 194 
L 494 -9 
L 259 -9 
L 228 1063 
L 444 1063 
Q 469 941 550 778 
Q 631 616 747 484 
Q 869 347 1039 253 
Q 1209 159 1422 159 
Q 1722 159 1884 295 
Q 2047 431 2047 684 
Q 2047 816 1995 911 
Q 1944 1006 1844 1078 
Q 1741 1150 1591 1208 
Q 1441 1266 1256 1322 
Q 1109 1366 929 1442 
Q 750 1519 622 1622 
Q 484 1731 396 1890 
Q 309 2050 309 2266 
Q 309 2644 590 2906 
Q 872 3169 1344 3169 
Q 1525 3169 1714 3122 
Q 1903 3075 2022 3009 
L 2094 3172 
L 2319 3172 
L 2366 2181 
L 2150 2181 
Q 2084 2513 1867 2720 
Q 1650 2928 1338 2928 
Q 1081 2928 934 2800 
Q 788 2672 788 2491 
Q 788 2350 836 2256 
Q 884 2163 981 2097 
Q 1075 2034 1217 1979 
Q 1359 1925 1569 1856 
Q 1775 1791 1958 1703 
Q 2141 1616 2259 1509 
z
" transform="scale(0.015625)"/>
       <path id="Georgia-63" d="M 1650 -81 
Q 981 -81 603 362 
Q 225 806 225 1553 
Q 225 1878 326 2161 
Q 428 2444 622 2675 
Q 806 2897 1084 3033 
Q 1363 3169 1691 3169 
Q 2144 3169 2428 2951 
Q 2713 2734 2713 2359 
Q 2713 2203 2638 2083 
Q 2563 1963 2391 1963 
Q 2206 1963 2104 2056 
Q 2003 2150 2003 2266 
Q 2003 2406 2040 2554 
Q 2078 2703 2084 2772 
Q 2028 2869 1917 2901 
Q 1806 2934 1678 2934 
Q 1528 2934 1392 2870 
Q 1256 2806 1128 2634 
Q 1013 2478 941 2212 
Q 869 1947 869 1578 
Q 869 997 1126 630 
Q 1384 263 1803 263 
Q 2106 263 2311 409 
Q 2516 556 2691 850 
L 2891 719 
Q 2684 350 2346 134 
Q 2009 -81 1650 -81 
z
" transform="scale(0.015625)"/>
       <path id="Georgia-6f" d="M 3228 1572 
Q 3228 1247 3125 933 
Q 3022 619 2831 400 
Q 2616 150 2331 28 
Q 2047 -94 1694 -94 
Q 1400 -94 1134 17 
Q 869 128 663 341 
Q 459 550 339 851 
Q 219 1153 219 1528 
Q 219 2250 639 2709 
Q 1059 3169 1741 3169 
Q 2388 3169 2808 2733 
Q 3228 2297 3228 1572 
z
M 2581 1566 
Q 2581 1800 2534 2061 
Q 2488 2322 2394 2503 
Q 2294 2697 2131 2814 
Q 1969 2931 1734 2931 
Q 1494 2931 1323 2812 
Q 1153 2694 1047 2488 
Q 947 2297 906 2053 
Q 866 1809 866 1581 
Q 866 1281 914 1026 
Q 963 772 1069 572 
Q 1175 372 1336 258 
Q 1497 144 1734 144 
Q 2125 144 2353 522 
Q 2581 900 2581 1566 
z
" transform="scale(0.015625)"/>
       <path id="Georgia-29" d="M 2034 1863 
Q 2034 588 1548 -165 
Q 1063 -919 209 -1025 
L 209 -769 
Q 822 -656 1128 5 
Q 1434 666 1434 1856 
Q 1434 3106 1121 3762 
Q 809 4419 209 4528 
L 209 4788 
Q 1063 4675 1548 3917 
Q 2034 3159 2034 1863 
z
" transform="scale(0.015625)"/>
      </defs>
      <use xlink:href="#Georgia-4d"/>
      <use xlink:href="#Georgia-65" transform="translate(92.724609 0)"/>
      <use xlink:href="#Georgia-61" transform="translate(141.064453 0)"/>
      <use xlink:href="#Georgia-6e" transform="translate(191.455078 0)"/>
      <use xlink:href="#Georgia-20" transform="translate(250.537109 0)"/>
      <use xlink:href="#Georgia-61" transform="translate(274.658203 0)"/>
      <use xlink:href="#Georgia-72" transform="translate(325.048828 0)"/>
      <use xlink:href="#Georgia-72" transform="translate(366.015625 0)"/>
      <use xlink:href="#Georgia-69" transform="translate(406.982422 0)"/>
      <use xlink:href="#Georgia-76" transform="translate(436.279297 0)"/>
      <use xlink:href="#Georgia-61" transform="translate(485.9375 0)"/>
      <use xlink:href="#Georgia-6c" transform="translate(536.328125 0)"/>
      <use xlink:href="#Georgia-20" transform="translate(564.941406 0)"/>
      <use xlink:href="#Georgia-64" transform="translate(589.0625 0)"/>
      <use xlink:href="#Georgia-65" transform="translate(646.484375 0)"/>
      <use xlink:href="#Georgia-6c" transform="translate(694.824219 0)"/>
      <use xlink:href="#Georgia-61" transform="translate(723.4375 0)"/>
      <use xlink:href="#Georgia-79" transform="translate(773.828125 0)"/>
      <use xlink:href="#Georgia-20" transform="translate(823.046875 0)"/>
      <use xlink:href="#Georgia-28" transform="translate(847.167969 0)"/>
      <use xlink:href="#Georgia-73" transform="translate(884.667969 0)"/>
      <use xlink:href="#Georgia-65" transform="translate(927.880859 0)"/>
      <use xlink:href="#Georgia-63" transform="translate(976.220703 0)"/>
      <use xlink:href="#Georgia-6f" transform="translate(1021.630859 0)"/>
      <use xlink:href="#Georgia-6e" transform="translate(1075.537109 0)"/>
      <use xlink:href="#Georgia-64" transform="translate(1134.619141 0)"/>
      <use xlink:href="#Georgia-73" transform="translate(1192.041016 0)"/>
      <use xlink:href="#Georgia-29" transform="translate(1235.253906 0)"/>
     </g>
    </g>
   </g>
   <g id="matplotlib.axis_2">
    <g id="ytick_1">
     <g id="line2d_11"/>
     <g id="text_7">
      <!-- Rapid 522 -->
      <g style="fill: #b0b0b0" transform="translate(7.2 259.127272) scale(0.09 -0.09)">
       <defs>
        <path id="Georgia-52" d="M 4625 0 
L 3431 0 
Q 3034 622 2714 1075 
Q 2394 1528 2019 2009 
L 1566 2009 
L 1566 603 
Q 1566 494 1600 411 
Q 1634 328 1747 284 
Q 1803 263 1943 244 
Q 2084 225 2181 222 
L 2181 0 
L 306 0 
L 306 222 
Q 381 228 523 243 
Q 666 259 722 284 
Q 816 325 858 403 
Q 900 481 900 603 
L 900 3809 
Q 900 3919 869 4003 
Q 838 4088 722 4131 
Q 644 4159 519 4182 
Q 394 4206 306 4213 
L 306 4434 
L 2353 4434 
Q 2634 4434 2881 4376 
Q 3128 4319 3328 4191 
Q 3522 4066 3637 3864 
Q 3753 3663 3753 3378 
Q 3753 3122 3675 2925 
Q 3597 2728 3444 2584 
Q 3303 2450 3106 2351 
Q 2909 2253 2672 2184 
Q 3000 1750 3217 1453 
Q 3434 1156 3750 731 
Q 3888 544 3998 455 
Q 4109 366 4219 309 
Q 4300 269 4422 247 
Q 4544 225 4625 222 
L 4625 0 
z
M 2981 3306 
Q 2981 3709 2750 3945 
Q 2519 4181 2097 4181 
L 1566 4181 
L 1566 2278 
L 1975 2278 
Q 2406 2278 2693 2554 
Q 2981 2831 2981 3306 
z
" transform="scale(0.015625)"/>
        <path id="Georgia-70" d="M 3041 2716 
Q 3225 2497 3326 2208 
Q 3428 1919 3428 1547 
Q 3428 1181 3306 879 
Q 3184 578 2984 366 
Q 2775 150 2519 34 
Q 2263 -81 1975 -81 
Q 1697 -81 1519 -18 
Q 1341 44 1228 128 
L 1203 128 
L 1203 -797 
Q 1203 -909 1247 -984 
Q 1291 -1059 1381 -1094 
Q 1456 -1122 1595 -1148 
Q 1734 -1175 1825 -1178 
L 1825 -1388 
L 103 -1388 
L 103 -1178 
Q 200 -1172 290 -1162 
Q 381 -1153 453 -1131 
Q 547 -1100 584 -1022 
Q 622 -944 622 -838 
L 622 2441 
Q 622 2534 575 2621 
Q 528 2709 453 2763 
Q 397 2800 297 2820 
Q 197 2841 103 2847 
L 103 3050 
L 1153 3119 
L 1197 3081 
L 1197 2734 
L 1222 2728 
Q 1384 2916 1625 3041 
Q 1866 3166 2103 3166 
Q 2391 3166 2630 3044 
Q 2869 2922 3041 2716 
z
M 2531 500 
Q 2656 694 2715 950 
Q 2775 1206 2775 1522 
Q 2775 1753 2725 1993 
Q 2675 2234 2569 2413 
Q 2463 2594 2291 2706 
Q 2119 2819 1878 2819 
Q 1647 2819 1484 2717 
Q 1322 2616 1203 2475 
L 1203 653 
Q 1231 569 1295 478 
Q 1359 388 1438 322 
Q 1534 244 1646 195 
Q 1759 147 1922 147 
Q 2097 147 2259 239 
Q 2422 331 2531 500 
z
" transform="scale(0.015625)"/>
        <path id="Georgia-35" d="M 2634 1466 
Q 2841 1303 2977 1047 
Q 3113 791 3113 406 
Q 3113 -266 2653 -703 
Q 2194 -1141 1488 -1141 
Q 941 -1141 562 -881 
Q 184 -622 184 -278 
Q 184 -119 262 0 
Q 341 119 503 119 
Q 691 119 789 20 
Q 888 -78 888 -194 
Q 888 -294 853 -444 
Q 819 -594 800 -666 
Q 825 -688 881 -725 
Q 938 -763 1016 -797 
Q 1097 -831 1214 -857 
Q 1331 -884 1488 -884 
Q 1688 -884 1866 -803 
Q 2044 -722 2166 -563 
Q 2300 -388 2367 -164 
Q 2434 59 2434 403 
Q 2434 844 2189 1133 
Q 1944 1422 1544 1422 
Q 1294 1422 1076 1328 
Q 859 1234 688 1016 
L 478 1097 
L 744 3353 
L 2981 3353 
L 2981 2797 
L 997 2797 
L 834 1472 
Q 975 1572 1204 1670 
Q 1434 1769 1709 1769 
Q 1938 1769 2183 1698 
Q 2428 1628 2634 1466 
z
" transform="scale(0.015625)"/>
       </defs>
       <use xlink:href="#Georgia-52"/>
       <use xlink:href="#Georgia-61" transform="translate(70.166016 0)"/>
       <use xlink:href="#Georgia-70" transform="translate(120.556641 0)"/>
       <use xlink:href="#Georgia-69" transform="translate(177.685547 0)"/>
       <use xlink:href="#Georgia-64" transform="translate(206.982422 0)"/>
       <use xlink:href="#Georgia-20" transform="translate(264.404297 0)"/>
       <use xlink:href="#Georgia-35" transform="translate(288.525391 0)"/>
       <use xlink:href="#Georgia-32" transform="translate(341.357422 0)"/>
       <use xlink:href="#Georgia-32" transform="translate(397.216797 0)"/>
      </g>
     </g>
    </g>
    <g id="ytick_2">
     <g id="line2d_12"/>
     <g id="text_8">
      <!-- Rapid 523 -->
      <g style="fill: #b0b0b0" transform="translate(7.261875 219.261238) scale(0.09 -0.09)">
       <use xlink:href="#Georgia-52"/>
       <use xlink:href="#Georgia-61" transform="translate(70.166016 0)"/>
       <use xlink:href="#Georgia-70" transform="translate(120.556641 0)"/>
       <use xlink:href="#Georgia-69" transform="translate(177.685547 0)"/>
       <use xlink:href="#Georgia-64" transform="translate(206.982422 0)"/>
       <use xlink:href="#Georgia-20" transform="translate(264.404297 0)"/>
       <use xlink:href="#Georgia-35" transform="translate(288.525391 0)"/>
       <use xlink:href="#Georgia-32" transform="translate(341.357422 0)"/>
       <use xlink:href="#Georgia-33" transform="translate(397.216797 0)"/>
      </g>
     </g>
    </g>
    <g id="ytick_3">
     <g id="line2d_13"/>
     <g id="text_9">
      <!-- 60 -->
      <g style="fill: #b0b0b0" transform="translate(37.359844 179.395203) scale(0.09 -0.09)">
       <defs>
        <path id="Georgia-36" d="M 3359 1441 
Q 3359 1116 3242 831 
Q 3125 547 2928 347 
Q 2700 119 2423 9 
Q 2147 -100 1847 -100 
Q 1500 -100 1219 28 
Q 938 156 741 391 
Q 541 628 431 972 
Q 322 1316 322 1744 
Q 322 2859 986 3625 
Q 1650 4391 2766 4544 
L 2822 4263 
L 2541 4213 
Q 1863 3994 1492 3531 
Q 1122 3069 1013 2409 
Q 1281 2644 1543 2741 
Q 1806 2838 2097 2838 
Q 2619 2838 2989 2438 
Q 3359 2038 3359 1441 
z
M 2681 1356 
Q 2681 1863 2448 2169 
Q 2216 2475 1825 2475 
Q 1591 2475 1389 2387 
Q 1188 2300 1000 2094 
Q 997 2056 990 1920 
Q 984 1784 984 1706 
Q 984 975 1223 561 
Q 1463 147 1853 147 
Q 2225 147 2453 470 
Q 2681 794 2681 1356 
z
" transform="scale(0.015625)"/>
       </defs>
       <use xlink:href="#Georgia-36"/>
       <use xlink:href="#Georgia-30" transform="translate(56.591797 0)"/>
      </g>
     </g>
    </g>
    <g id="ytick_4">
     <g id="line2d_14"/>
     <g id="text_10">
      <!-- 23 -->
      <g style="fill: #b0b0b0" transform="translate(37.984219 139.529169) scale(0.09 -0.09)">
       <use xlink:href="#Georgia-32"/>
       <use xlink:href="#Georgia-33" transform="translate(55.859375 0)"/>
      </g>
     </g>
    </g>
    <g id="ytick_5">
     <g id="line2d_15"/>
     <g id="text_11">
      <!-- 22 -->
      <g style="fill: #b0b0b0" transform="translate(37.922344 99.663135) scale(0.09 -0.09)">
       <use xlink:href="#Georgia-32"/>
       <use xlink:href="#Georgia-32" transform="translate(55.859375 0)"/>
      </g>
     </g>
    </g>
    <g id="ytick_6">
     <g id="line2d_16"/>
     <g id="text_12">
      <!-- 25 -->
      <g style="fill: #b0b0b0" transform="translate(38.195156 59.797101) scale(0.09 -0.09)">
       <use xlink:href="#Georgia-32"/>
       <use xlink:href="#Georgia-35" transform="translate(55.859375 0)"/>
      </g>
     </g>
    </g>
   </g>
   <g id="line2d_17">
    <path d="M 490.590426 277.093747 
L 490.590426 35.027187 
" clip-path="url(#p70af6788a7)" style="fill: none; stroke: #555555; stroke-width: 0.85; stroke-linecap: square"/>
   </g>
   <g id="patch_3">
    <path d="M 51.477031 277.093747 
L 51.477031 35.027187 
" style="fill: none; stroke: #3a3a3a; stroke-width: 0.6; stroke-linejoin: miter; stroke-linecap: square"/>
   </g>
   <g id="patch_4">
    <path d="M 51.477031 277.093747 
L 695.117031 277.093747 
" style="fill: none; stroke: #3a3a3a; stroke-width: 0.6; stroke-linejoin: miter; stroke-linecap: square"/>
   </g>
   <g id="patch_5">
    <path d="M 490.590426 266.090722 
L 148.616302 266.090722 
L 148.616302 245.360384 
L 490.590426 245.360384 
z
" clip-path="url(#p70af6788a7)" style="fill: #5b8db8"/>
   </g>
   <g id="patch_6">
    <path d="M 490.590426 226.224688 
L 207.004978 226.224688 
L 207.004978 205.49435 
L 490.590426 205.49435 
z
" clip-path="url(#p70af6788a7)" style="fill: #5b8db8"/>
   </g>
   <g id="patch_7">
    <path d="M 490.590426 186.358654 
L 428.776956 186.358654 
L 428.776956 165.628316 
L 490.590426 165.628316 
z
" clip-path="url(#p70af6788a7)" style="fill: #c94f2a"/>
   </g>
   <g id="patch_8">
    <path d="M 490.590426 146.492619 
L 463.42883 146.492619 
L 463.42883 125.762281 
L 490.590426 125.762281 
z
" clip-path="url(#p70af6788a7)" style="fill: #c94f2a"/>
   </g>
   <g id="patch_9">
    <path d="M 490.590426 106.626585 
L 539.632006 106.626585 
L 539.632006 85.896247 
L 490.590426 85.896247 
z
" clip-path="url(#p70af6788a7)" style="fill: #c94f2a"/>
   </g>
   <g id="patch_10">
    <path d="M 490.590426 66.760551 
L 597.977761 66.760551 
L 597.977761 46.030213 
L 490.590426 46.030213 
z
" clip-path="url(#p70af6788a7)" style="fill: #c94f2a"/>
   </g>
   <g id="text_13">
    <!-- n = 1,889 -->
    <g style="fill: #b0b0b0" transform="translate(88.378796 258.016569) scale(0.085 -0.085)">
     <defs>
      <path id="Georgia-3d" d="M 3634 2134 
L 481 2134 
L 481 2525 
L 3634 2525 
L 3634 2134 
z
M 3634 972 
L 481 972 
L 481 1363 
L 3634 1363 
L 3634 972 
z
" transform="scale(0.015625)"/>
      <path id="Georgia-2c" d="M 1341 109 
Q 1341 -116 1239 -316 
Q 1138 -516 1006 -659 
Q 872 -809 722 -925 
Q 572 -1041 447 -1106 
L 303 -897 
Q 453 -803 572 -709 
Q 691 -616 766 -522 
Q 859 -413 925 -284 
Q 991 -156 1009 6 
L 850 6 
Q 641 6 523 115 
Q 406 225 406 409 
Q 406 541 512 664 
Q 619 788 803 788 
Q 1072 788 1206 608 
Q 1341 428 1341 109 
z
" transform="scale(0.015625)"/>
      <path id="Georgia-38" d="M 3491 1175 
Q 3491 650 3037 272 
Q 2584 -106 1847 -106 
Q 1156 -106 740 241 
Q 325 588 325 1134 
Q 325 1538 570 1808 
Q 816 2078 1297 2266 
Q 900 2488 703 2753 
Q 506 3019 506 3353 
Q 506 3863 939 4206 
Q 1372 4550 1975 4550 
Q 2578 4550 2951 4225 
Q 3325 3900 3325 3409 
Q 3325 3094 3119 2811 
Q 2913 2528 2513 2347 
Q 3031 2125 3261 1856 
Q 3491 1588 3491 1175 
z
M 2734 3444 
Q 2734 3825 2507 4064 
Q 2281 4303 1928 4303 
Q 1575 4303 1350 4073 
Q 1125 3844 1125 3503 
Q 1125 3175 1381 2947 
Q 1638 2719 2294 2459 
Q 2528 2609 2631 2856 
Q 2734 3103 2734 3444 
z
M 2866 1028 
Q 2866 1225 2781 1373 
Q 2697 1522 2538 1644 
Q 2384 1763 2111 1892 
Q 1838 2022 1519 2156 
Q 1219 1994 1078 1742 
Q 938 1491 938 1169 
Q 938 709 1208 426 
Q 1478 144 1928 144 
Q 2359 144 2612 394 
Q 2866 644 2866 1028 
z
" transform="scale(0.015625)"/>
      <path id="Georgia-39" d="M 3300 1613 
Q 3300 1069 3128 589 
Q 2956 109 2634 -253 
Q 2319 -609 1864 -845 
Q 1409 -1081 847 -1156 
L 791 -875 
L 1072 -825 
Q 1744 -613 2122 -172 
Q 2500 269 2609 947 
Q 2353 728 2098 626 
Q 1844 525 1525 525 
Q 1016 525 639 922 
Q 263 1319 263 1922 
Q 263 2569 698 3012 
Q 1134 3456 1775 3456 
Q 2472 3456 2886 2959 
Q 3300 2463 3300 1613 
z
M 2638 1650 
Q 2638 2381 2398 2795 
Q 2159 3209 1769 3209 
Q 1397 3209 1169 2889 
Q 941 2569 941 2006 
Q 941 1500 1173 1194 
Q 1406 888 1797 888 
Q 2041 888 2244 977 
Q 2447 1066 2622 1263 
Q 2622 1275 2626 1312 
Q 2631 1350 2631 1419 
Q 2631 1463 2634 1525 
Q 2638 1588 2638 1650 
z
" transform="scale(0.015625)"/>
     </defs>
     <use xlink:href="#Georgia-6e"/>
     <use xlink:href="#Georgia-20" transform="translate(59.082031 0)"/>
     <use xlink:href="#Georgia-3d" transform="translate(83.203125 0)"/>
     <use xlink:href="#Georgia-20" transform="translate(147.509766 0)"/>
     <use xlink:href="#Georgia-31" transform="translate(171.630859 0)"/>
     <use xlink:href="#Georgia-2c" transform="translate(214.599609 0)"/>
     <use xlink:href="#Georgia-38" transform="translate(241.552734 0)"/>
     <use xlink:href="#Georgia-38" transform="translate(301.171875 0)"/>
     <use xlink:href="#Georgia-39" transform="translate(360.791016 0)"/>
    </g>
   </g>
   <g id="text_14">
    <!-- n = 1,259 -->
    <g style="fill: #b0b0b0" transform="translate(143.735148 218.150535) scale(0.085 -0.085)">
     <use xlink:href="#Georgia-6e"/>
     <use xlink:href="#Georgia-20" transform="translate(59.082031 0)"/>
     <use xlink:href="#Georgia-3d" transform="translate(83.203125 0)"/>
     <use xlink:href="#Georgia-20" transform="translate(147.509766 0)"/>
     <use xlink:href="#Georgia-31" transform="translate(171.630859 0)"/>
     <use xlink:href="#Georgia-2c" transform="translate(214.599609 0)"/>
     <use xlink:href="#Georgia-32" transform="translate(241.552734 0)"/>
     <use xlink:href="#Georgia-35" transform="translate(297.412109 0)"/>
     <use xlink:href="#Georgia-39" transform="translate(350.244141 0)"/>
    </g>
   </g>
   <g id="text_15">
    <!-- n = 3,095 -->
    <g style="fill: #b0b0b0" transform="translate(377.362878 178.2845) scale(0.085 -0.085)">
     <use xlink:href="#Georgia-6e"/>
     <use xlink:href="#Georgia-20" transform="translate(59.082031 0)"/>
     <use xlink:href="#Georgia-3d" transform="translate(83.203125 0)"/>
     <use xlink:href="#Georgia-20" transform="translate(147.509766 0)"/>
     <use xlink:href="#Georgia-33" transform="translate(171.630859 0)"/>
     <use xlink:href="#Georgia-2c" transform="translate(226.806641 0)"/>
     <use xlink:href="#Georgia-30" transform="translate(253.759766 0)"/>
     <use xlink:href="#Georgia-39" transform="translate(315.136719 0)"/>
     <use xlink:href="#Georgia-35" transform="translate(371.728516 0)"/>
    </g>
   </g>
   <g id="text_16">
    <!-- n = 3,732 -->
    <g style="fill: #b0b0b0" transform="translate(412.261636 138.418466) scale(0.085 -0.085)">
     <defs>
      <path id="Georgia-37" d="M 3216 3150 
L 988 -1141 
L 597 -1141 
L 2694 2828 
L 1466 2828 
Q 1194 2828 1041 2822 
Q 888 2816 759 2763 
Q 663 2722 586 2555 
Q 509 2388 469 2128 
L 278 2128 
L 278 3353 
L 3216 3353 
L 3216 3150 
z
" transform="scale(0.015625)"/>
     </defs>
     <use xlink:href="#Georgia-6e"/>
     <use xlink:href="#Georgia-20" transform="translate(59.082031 0)"/>
     <use xlink:href="#Georgia-3d" transform="translate(83.203125 0)"/>
     <use xlink:href="#Georgia-20" transform="translate(147.509766 0)"/>
     <use xlink:href="#Georgia-33" transform="translate(171.630859 0)"/>
     <use xlink:href="#Georgia-2c" transform="translate(226.806641 0)"/>
     <use xlink:href="#Georgia-37" transform="translate(253.759766 0)"/>
     <use xlink:href="#Georgia-33" transform="translate(304.003906 0)"/>
     <use xlink:href="#Georgia-32" transform="translate(359.179688 0)"/>
    </g>
   </g>
   <g id="text_17">
    <!-- n = 5,796 -->
    <g style="fill: #b0b0b0" transform="translate(560.444388 98.552432) scale(0.085 -0.085)">
     <use xlink:href="#Georgia-6e"/>
     <use xlink:href="#Georgia-20" transform="translate(59.082031 0)"/>
     <use xlink:href="#Georgia-3d" transform="translate(83.203125 0)"/>
     <use xlink:href="#Georgia-20" transform="translate(147.509766 0)"/>
     <use xlink:href="#Georgia-35" transform="translate(171.630859 0)"/>
     <use xlink:href="#Georgia-2c" transform="translate(224.462891 0)"/>
     <use xlink:href="#Georgia-37" transform="translate(251.416016 0)"/>
     <use xlink:href="#Georgia-39" transform="translate(301.660156 0)"/>
     <use xlink:href="#Georgia-36" transform="translate(358.251953 0)"/>
    </g>
   </g>
   <g id="text_18">
    <!-- n = 3,715 -->
    <g style="fill: #b0b0b0" transform="translate(623.262562 58.686397) scale(0.085 -0.085)">
     <use xlink:href="#Georgia-6e"/>
     <use xlink:href="#Georgia-20" transform="translate(59.082031 0)"/>
     <use xlink:href="#Georgia-3d" transform="translate(83.203125 0)"/>
     <use xlink:href="#Georgia-20" transform="translate(147.509766 0)"/>
     <use xlink:href="#Georgia-33" transform="translate(171.630859 0)"/>
     <use xlink:href="#Georgia-2c" transform="translate(226.806641 0)"/>
     <use xlink:href="#Georgia-37" transform="translate(253.759766 0)"/>
     <use xlink:href="#Georgia-31" transform="translate(304.003906 0)"/>
     <use xlink:href="#Georgia-35" transform="translate(346.972656 0)"/>
    </g>
   </g>
   <g id="text_19">
    <!-- $\leftarrow$ early -->
    <g style="fill: #b0b0b0" transform="translate(444.867626 312.981735) scale(0.09 -0.09)">
     <defs>
      <path id="DejaVuSans-2190" d="M 313 1866 
L 313 2147 
L 1541 3375 
L 1916 3000 
L 1188 2272 
L 4997 2272 
L 4997 1741 
L 1188 1741 
L 1916 1013 
L 1541 638 
L 313 1866 
z
" transform="scale(0.015625)"/>
     </defs>
     <use xlink:href="#DejaVuSans-2190" transform="translate(19.482422 0.40625)"/>
     <use xlink:href="#Georgia-20" transform="translate(122.753906 0.40625)"/>
     <use xlink:href="#Georgia-65" transform="translate(146.875 0.40625)"/>
     <use xlink:href="#Georgia-61" transform="translate(195.214844 0.40625)"/>
     <use xlink:href="#Georgia-72" transform="translate(245.605469 0.40625)"/>
     <use xlink:href="#Georgia-6c" transform="translate(286.572266 0.40625)"/>
     <use xlink:href="#Georgia-79" transform="translate(315.185547 0.40625)"/>
    </g>
   </g>
   <g id="text_20">
    <!-- late $\rightarrow$ -->
    <g style="fill: #b0b0b0" transform="translate(503.463226 312.945172) scale(0.09 -0.09)">
     <defs>
      <path id="Georgia-74" d="M 2128 134 
Q 1925 50 1744 -8 
Q 1563 -66 1300 -66 
Q 913 -66 755 129 
Q 597 325 597 681 
L 597 2769 
L 41 2769 
L 41 3069 
L 609 3069 
L 609 4028 
L 1178 4028 
L 1178 3069 
L 2063 3069 
L 2063 2769 
L 1184 2769 
L 1184 1047 
Q 1184 853 1198 723 
Q 1213 594 1266 497 
Q 1316 406 1416 359 
Q 1516 313 1684 313 
Q 1763 313 1914 327 
Q 2066 341 2128 363 
L 2128 134 
z
" transform="scale(0.015625)"/>
      <path id="DejaVuSans-2192" d="M 5050 2147 
L 5050 1866 
L 3822 638 
L 3447 1013 
L 4175 1741 
L 366 1741 
L 366 2272 
L 4175 2272 
L 3447 3000 
L 3822 3375 
L 5050 2147 
z
" transform="scale(0.015625)"/>
     </defs>
     <use xlink:href="#Georgia-6c" transform="translate(0 0.40625)"/>
     <use xlink:href="#Georgia-61" transform="translate(28.613281 0.40625)"/>
     <use xlink:href="#Georgia-74" transform="translate(79.003906 0.40625)"/>
     <use xlink:href="#Georgia-65" transform="translate(113.525391 0.40625)"/>
     <use xlink:href="#Georgia-20" transform="translate(161.865234 0.40625)"/>
     <use xlink:href="#DejaVuSans-2192" transform="translate(205.46875 0.40625)"/>
    </g>
   </g>
   <g id="text_21">
    <!-- Error bars = 95% CI of the mean  ·  Weekday May 4, 2026 -->
    <g style="fill: #777777" transform="translate(51.477031 28.342419) scale(0.085 -0.085)">
     <defs>
      <path id="Georgia-45" d="M 4034 1306 
L 3950 0 
L 269 0 
L 269 222 
Q 363 228 519 248 
Q 675 269 722 291 
Q 822 338 861 413 
Q 900 488 900 603 
L 900 3791 
Q 900 3894 865 3973 
Q 831 4053 722 4103 
Q 638 4144 495 4175 
Q 353 4206 269 4213 
L 269 4434 
L 3700 4434 
L 3700 3366 
L 3466 3366 
Q 3403 3603 3195 3870 
Q 2988 4138 2800 4163 
Q 2703 4175 2568 4181 
Q 2434 4188 2263 4188 
L 1566 4188 
L 1566 2425 
L 2066 2425 
Q 2306 2425 2417 2470 
Q 2528 2516 2613 2622 
Q 2681 2713 2729 2864 
Q 2778 3016 2794 3150 
L 3028 3150 
L 3028 1416 
L 2794 1416 
Q 2781 1566 2726 1733 
Q 2672 1900 2613 1975 
Q 2516 2097 2392 2134 
Q 2269 2172 2066 2172 
L 1566 2172 
L 1566 841 
Q 1566 641 1594 525 
Q 1622 409 1703 350 
Q 1784 291 1925 273 
Q 2066 256 2325 256 
Q 2428 256 2597 256 
Q 2766 256 2881 269 
Q 3000 281 3126 314 
Q 3253 347 3306 403 
Q 3450 553 3608 858 
Q 3766 1163 3809 1306 
L 4034 1306 
z
" transform="scale(0.015625)"/>
      <path id="Georgia-62" d="M 3353 1544 
Q 3353 850 2915 378 
Q 2478 -94 1900 -94 
Q 1647 -94 1401 -15 
Q 1156 63 941 194 
L 709 -166 
L 516 -122 
Q 531 109 537 434 
Q 544 759 544 1063 
L 544 4113 
Q 544 4219 495 4325 
Q 447 4431 372 4478 
Q 313 4519 173 4539 
Q 34 4559 -50 4566 
L -50 4766 
L 1081 4838 
L 1125 4791 
L 1125 2759 
L 1147 2753 
Q 1341 2959 1570 3062 
Q 1800 3166 2022 3166 
Q 2591 3166 2972 2716 
Q 3353 2266 3353 1544 
z
M 2700 1522 
Q 2700 1753 2650 1993 
Q 2600 2234 2494 2413 
Q 2388 2594 2216 2706 
Q 2044 2819 1803 2819 
Q 1584 2819 1420 2733 
Q 1256 2647 1125 2500 
L 1125 706 
Q 1144 631 1198 531 
Q 1253 431 1347 341 
Q 1441 253 1559 198 
Q 1678 144 1850 144 
Q 2231 144 2465 512 
Q 2700 881 2700 1522 
z
" transform="scale(0.015625)"/>
      <path id="Georgia-25" d="M 2463 3384 
Q 2463 2834 2166 2531 
Q 1869 2228 1400 2228 
Q 931 2228 636 2531 
Q 341 2834 341 3384 
Q 341 3903 630 4222 
Q 919 4541 1403 4541 
Q 1881 4541 2172 4222 
Q 2463 3903 2463 3384 
z
M 1934 3384 
Q 1934 3791 1800 4050 
Q 1666 4309 1403 4309 
Q 1134 4309 1001 4050 
Q 869 3791 869 3384 
Q 869 2969 1003 2714 
Q 1138 2459 1400 2459 
Q 1663 2459 1798 2714 
Q 1934 2969 1934 3384 
z
M 4891 1056 
Q 4891 506 4594 203 
Q 4297 -100 3828 -100 
Q 3359 -100 3064 203 
Q 2769 506 2769 1056 
Q 2769 1575 3058 1894 
Q 3347 2213 3831 2213 
Q 4309 2213 4600 1894 
Q 4891 1575 4891 1056 
z
M 4363 1056 
Q 4363 1463 4228 1722 
Q 4094 1981 3831 1981 
Q 3563 1981 3430 1722 
Q 3297 1463 3297 1056 
Q 3297 641 3431 386 
Q 3566 131 3828 131 
Q 4091 131 4227 386 
Q 4363 641 4363 1056 
z
M 4684 4450 
L 1000 0 
L 569 0 
L 4244 4450 
L 4684 4450 
z
" transform="scale(0.015625)"/>
      <path id="Georgia-43" d="M 2259 -103 
Q 1863 -103 1498 53 
Q 1134 209 853 503 
Q 575 797 409 1220 
Q 244 1644 244 2175 
Q 244 2706 406 3139 
Q 569 3572 856 3884 
Q 1141 4194 1528 4362 
Q 1916 4531 2356 4531 
Q 2684 4531 2950 4450 
Q 3216 4369 3456 4222 
L 3584 4434 
L 3834 4434 
L 3863 2853 
L 3606 2853 
Q 3556 3084 3456 3354 
Q 3356 3625 3222 3813 
Q 3072 4025 2865 4145 
Q 2659 4266 2394 4266 
Q 2091 4266 1830 4131 
Q 1569 3997 1378 3734 
Q 1197 3481 1094 3090 
Q 991 2700 991 2219 
Q 991 1794 1098 1439 
Q 1206 1084 1406 816 
Q 1606 550 1879 400 
Q 2153 250 2491 250 
Q 2744 250 2956 329 
Q 3169 409 3325 541 
Q 3481 678 3600 853 
Q 3719 1028 3794 1234 
L 4028 1122 
Q 3759 463 3315 180 
Q 2872 -103 2259 -103 
z
" transform="scale(0.015625)"/>
      <path id="Georgia-49" d="M 2244 0 
L 247 0 
L 247 222 
Q 331 228 490 240 
Q 650 253 716 278 
Q 819 319 866 389 
Q 913 459 913 584 
L 913 3797 
Q 913 3906 878 3979 
Q 844 4053 716 4103 
Q 622 4141 480 4173 
Q 338 4206 247 4213 
L 247 4434 
L 2244 4434 
L 2244 4213 
Q 2147 4209 2012 4189 
Q 1878 4169 1778 4138 
Q 1659 4100 1618 4015 
Q 1578 3931 1578 3828 
L 1578 619 
Q 1578 516 1623 436 
Q 1669 356 1778 309 
Q 1844 284 1992 254 
Q 2141 225 2244 222 
L 2244 0 
z
" transform="scale(0.015625)"/>
      <path id="Georgia-66" d="M 2519 4466 
Q 2519 4325 2444 4228 
Q 2369 4131 2216 4131 
Q 2119 4131 2045 4172 
Q 1972 4213 1909 4281 
Q 1847 4350 1794 4437 
Q 1741 4525 1703 4578 
Q 1494 4569 1380 4286 
Q 1266 4003 1266 3384 
L 1266 3069 
L 2059 3069 
L 2059 2769 
L 1266 2769 
L 1266 556 
Q 1266 447 1308 378 
Q 1350 309 1441 275 
Q 1516 247 1641 230 
Q 1766 213 1856 206 
L 1856 0 
L 231 0 
L 231 206 
Q 303 213 379 219 
Q 456 225 513 244 
Q 600 272 642 342 
Q 684 413 684 525 
L 684 2769 
L 75 2769 
L 75 3069 
L 684 3069 
L 684 3266 
Q 684 3969 1048 4405 
Q 1413 4841 1959 4841 
Q 2238 4841 2378 4731 
Q 2519 4622 2519 4466 
z
" transform="scale(0.015625)"/>
      <path id="Georgia-68" d="M 3572 0 
L 2059 0 
L 2059 206 
Q 2131 213 2218 219 
Q 2306 225 2363 244 
Q 2450 272 2492 342 
Q 2534 413 2534 525 
L 2534 2109 
Q 2534 2438 2379 2616 
Q 2225 2794 2003 2794 
Q 1841 2794 1702 2742 
Q 1563 2691 1453 2616 
Q 1347 2538 1290 2459 
Q 1234 2381 1203 2328 
L 1203 556 
Q 1203 450 1245 381 
Q 1288 313 1375 275 
Q 1444 244 1517 228 
Q 1591 213 1678 206 
L 1678 0 
L 166 0 
L 166 206 
Q 238 213 316 220 
Q 394 228 447 244 
Q 534 272 578 342 
Q 622 413 622 525 
L 622 4113 
Q 622 4219 573 4325 
Q 525 4431 447 4484 
Q 391 4525 248 4542 
Q 106 4559 19 4566 
L 19 4766 
L 1159 4838 
L 1203 4791 
L 1203 2641 
L 1216 2641 
Q 1319 2744 1403 2823 
Q 1488 2903 1625 2991 
Q 1744 3066 1905 3116 
Q 2066 3166 2266 3166 
Q 2678 3166 2900 2905 
Q 3122 2644 3122 2153 
L 3122 550 
Q 3122 441 3161 373 
Q 3200 306 3291 269 
Q 3363 241 3420 227 
Q 3478 213 3572 206 
L 3572 0 
z
" transform="scale(0.015625)"/>
      <path id="Georgia-6d" d="M 5503 0 
L 4000 0 
L 4000 206 
Q 4072 213 4145 219 
Q 4219 225 4275 244 
Q 4363 272 4405 342 
Q 4447 413 4447 525 
L 4447 2116 
Q 4447 2441 4298 2617 
Q 4150 2794 3928 2794 
Q 3775 2794 3640 2747 
Q 3506 2700 3394 2616 
Q 3303 2547 3242 2467 
Q 3181 2388 3150 2334 
L 3150 556 
Q 3150 447 3187 376 
Q 3225 306 3316 269 
Q 3388 241 3445 227 
Q 3503 213 3597 206 
L 3597 0 
L 2125 0 
L 2125 206 
Q 2197 213 2264 219 
Q 2331 225 2388 244 
Q 2475 272 2517 342 
Q 2559 413 2559 525 
L 2559 2116 
Q 2559 2441 2411 2617 
Q 2263 2794 2041 2794 
Q 1888 2794 1753 2745 
Q 1619 2697 1506 2613 
Q 1416 2544 1353 2458 
Q 1291 2372 1259 2328 
L 1259 563 
Q 1259 456 1303 384 
Q 1347 313 1434 275 
Q 1500 244 1569 228 
Q 1638 213 1722 206 
L 1722 0 
L 225 0 
L 225 206 
Q 297 213 373 219 
Q 450 225 506 244 
Q 594 272 636 342 
Q 678 413 678 525 
L 678 2441 
Q 678 2541 633 2620 
Q 588 2700 506 2756 
Q 447 2794 359 2817 
Q 272 2841 178 2847 
L 178 3050 
L 1209 3119 
L 1253 3075 
L 1253 2634 
L 1275 2634 
Q 1353 2713 1465 2819 
Q 1578 2925 1675 2991 
Q 1784 3066 1948 3116 
Q 2113 3166 2303 3166 
Q 2603 3166 2818 3005 
Q 3034 2844 3128 2616 
Q 3241 2725 3327 2808 
Q 3413 2891 3553 2984 
Q 3672 3066 3833 3116 
Q 3994 3166 4191 3166 
Q 4581 3166 4809 2909 
Q 5038 2653 5038 2122 
L 5038 556 
Q 5038 447 5075 376 
Q 5113 306 5203 269 
Q 5275 241 5345 227 
Q 5416 213 5503 206 
L 5503 0 
z
" transform="scale(0.015625)"/>
      <path id="Georgia-b7" d="M 1328 1747 
Q 1328 1572 1201 1448 
Q 1075 1325 900 1325 
Q 725 1325 598 1448 
Q 472 1572 472 1747 
Q 472 1922 598 2049 
Q 725 2176 900 2176 
Q 1075 2176 1201 2049 
Q 1328 1922 1328 1747 
z
" transform="scale(0.015625)"/>
      <path id="Georgia-57" d="M 6338 4213 
Q 6259 4209 6156 4176 
Q 6053 4144 5966 4091 
Q 5856 4022 5789 3933 
Q 5722 3844 5672 3684 
Q 5450 2963 5156 1998 
Q 4863 1034 4522 -56 
L 4234 -56 
L 3116 3356 
L 1950 -56 
L 1675 -56 
Q 1366 1038 1034 2214 
Q 703 3391 591 3791 
Q 563 3888 508 3963 
Q 453 4038 359 4100 
Q 281 4153 176 4179 
Q 72 4206 -13 4213 
L -13 4434 
L 1797 4434 
L 1797 4213 
Q 1559 4200 1392 4165 
Q 1225 4131 1225 4050 
Q 1225 4019 1234 3967 
Q 1244 3916 1250 3884 
Q 1322 3609 1505 2976 
Q 1688 2344 2047 1081 
L 3153 4372 
L 3459 4372 
L 4575 1009 
Q 4800 1784 4962 2364 
Q 5125 2944 5231 3356 
Q 5306 3647 5325 3755 
Q 5344 3863 5344 3938 
Q 5344 4044 5198 4116 
Q 5053 4188 4728 4213 
L 4728 4434 
L 6338 4434 
L 6338 4213 
z
" transform="scale(0.015625)"/>
      <path id="Georgia-6b" d="M 3491 0 
L 2559 0 
Q 2316 353 2037 756 
Q 1759 1159 1459 1541 
L 1203 1300 
L 1203 569 
Q 1203 456 1243 382 
Q 1284 309 1375 275 
Q 1450 244 1519 228 
Q 1588 213 1678 206 
L 1678 0 
L 166 0 
L 166 206 
Q 238 213 316 220 
Q 394 228 447 244 
Q 534 272 578 342 
Q 622 413 622 525 
L 622 4106 
Q 622 4222 573 4323 
Q 525 4425 447 4478 
Q 381 4528 242 4543 
Q 103 4559 19 4566 
L 19 4766 
L 1159 4838 
L 1203 4791 
L 1203 1531 
Q 1447 1775 1730 2054 
Q 2013 2334 2206 2553 
Q 2231 2581 2261 2626 
Q 2291 2672 2291 2700 
Q 2291 2784 2155 2825 
Q 2019 2866 1894 2881 
L 1894 3081 
L 3250 3081 
L 3250 2888 
Q 2988 2809 2786 2692 
Q 2584 2575 2478 2481 
Q 2403 2419 2265 2278 
Q 2128 2138 1881 1909 
Q 2138 1594 2458 1153 
Q 2778 713 2925 516 
Q 3063 331 3172 275 
Q 3281 219 3491 206 
L 3491 0 
z
" transform="scale(0.015625)"/>
      <path id="Georgia-34" d="M 3388 281 
L 2753 281 
L 2753 -1141 
L 2153 -1141 
L 2153 281 
L 153 281 
L 153 763 
L 2344 3434 
L 2753 3434 
L 2753 691 
L 3388 691 
L 3388 281 
z
M 2153 691 
L 2153 2738 
L 466 691 
L 2153 691 
z
" transform="scale(0.015625)"/>
     </defs>
     <use xlink:href="#Georgia-45"/>
     <use xlink:href="#Georgia-72" transform="translate(65.332031 0)"/>
     <use xlink:href="#Georgia-72" transform="translate(106.298828 0)"/>
     <use xlink:href="#Georgia-6f" transform="translate(147.265625 0)"/>
     <use xlink:href="#Georgia-72" transform="translate(201.171875 0)"/>
     <use xlink:href="#Georgia-20" transform="translate(242.138672 0)"/>
     <use xlink:href="#Georgia-62" transform="translate(266.259766 0)"/>
     <use xlink:href="#Georgia-61" transform="translate(322.265625 0)"/>
     <use xlink:href="#Georgia-72" transform="translate(372.65625 0)"/>
     <use xlink:href="#Georgia-73" transform="translate(413.623047 0)"/>
     <use xlink:href="#Georgia-20" transform="translate(456.835938 0)"/>
     <use xlink:href="#Georgia-3d" transform="translate(480.957031 0)"/>
     <use xlink:href="#Georgia-20" transform="translate(545.263672 0)"/>
     <use xlink:href="#Georgia-39" transform="translate(569.384766 0)"/>
     <use xlink:href="#Georgia-35" transform="translate(625.976562 0)"/>
     <use xlink:href="#Georgia-25" transform="translate(678.808594 0)"/>
     <use xlink:href="#Georgia-20" transform="translate(760.546875 0)"/>
     <use xlink:href="#Georgia-43" transform="translate(784.667969 0)"/>
     <use xlink:href="#Georgia-49" transform="translate(848.876953 0)"/>
     <use xlink:href="#Georgia-20" transform="translate(887.841797 0)"/>
     <use xlink:href="#Georgia-6f" transform="translate(911.962891 0)"/>
     <use xlink:href="#Georgia-66" transform="translate(965.869141 0)"/>
     <use xlink:href="#Georgia-20" transform="translate(998.388672 0)"/>
     <use xlink:href="#Georgia-74" transform="translate(1022.509766 0)"/>
     <use xlink:href="#Georgia-68" transform="translate(1057.03125 0)"/>
     <use xlink:href="#Georgia-65" transform="translate(1115.234375 0)"/>
     <use xlink:href="#Georgia-20" transform="translate(1163.574219 0)"/>
     <use xlink:href="#Georgia-6d" transform="translate(1187.695312 0)"/>
     <use xlink:href="#Georgia-65" transform="translate(1275.78125 0)"/>
     <use xlink:href="#Georgia-61" transform="translate(1324.121094 0)"/>
     <use xlink:href="#Georgia-6e" transform="translate(1374.511719 0)"/>
     <use xlink:href="#Georgia-20" transform="translate(1433.59375 0)"/>
     <use xlink:href="#Georgia-20" transform="translate(1457.714844 0)"/>
     <use xlink:href="#Georgia-b7" transform="translate(1481.835938 0)"/>
     <use xlink:href="#Georgia-20" transform="translate(1509.765625 0)"/>
     <use xlink:href="#Georgia-20" transform="translate(1533.886719 0)"/>
     <use xlink:href="#Georgia-57" transform="translate(1558.007812 0)"/>
     <use xlink:href="#Georgia-65" transform="translate(1655.566406 0)"/>
     <use xlink:href="#Georgia-65" transform="translate(1703.90625 0)"/>
     <use xlink:href="#Georgia-6b" transform="translate(1752.246094 0)"/>
     <use xlink:href="#Georgia-64" transform="translate(1805.810547 0)"/>
     <use xlink:href="#Georgia-61" transform="translate(1863.232422 0)"/>
     <use xlink:href="#Georgia-79" transform="translate(1913.623047 0)"/>
     <use xlink:href="#Georgia-20" transform="translate(1962.841797 0)"/>
     <use xlink:href="#Georgia-4d" transform="translate(1986.962891 0)"/>
     <use xlink:href="#Georgia-61" transform="translate(2079.6875 0)"/>
     <use xlink:href="#Georgia-79" transform="translate(2130.078125 0)"/>
     <use xlink:href="#Georgia-20" transform="translate(2179.296875 0)"/>
     <use xlink:href="#Georgia-34" transform="translate(2203.417969 0)"/>
     <use xlink:href="#Georgia-2c" transform="translate(2259.912109 0)"/>
     <use xlink:href="#Georgia-20" transform="translate(2286.865234 0)"/>
     <use xlink:href="#Georgia-32" transform="translate(2310.986328 0)"/>
     <use xlink:href="#Georgia-30" transform="translate(2366.845703 0)"/>
     <use xlink:href="#Georgia-32" transform="translate(2428.222656 0)"/>
     <use xlink:href="#Georgia-36" transform="translate(2484.082031 0)"/>
    </g>
   </g>
   <g id="text_22">
    <!-- Mean Arrival Delay by VTA Study Route -->
    <g style="fill: #e8e8e8" transform="translate(51.477031 17.027187) scale(0.13 -0.13)">
     <defs>
      <path id="Georgia-Bold-4d" d="M 6309 0 
L 3906 0 
L 3906 244 
Q 4013 253 4167 275 
Q 4322 297 4378 322 
Q 4494 369 4544 450 
Q 4594 531 4594 656 
L 4594 3969 
L 3069 72 
L 2675 72 
Q 2647 175 2536 481 
Q 2425 788 2356 972 
L 1234 4019 
L 1234 1322 
Q 1234 934 1286 732 
Q 1338 531 1453 438 
Q 1531 372 1732 312 
Q 1934 253 2016 244 
L 2016 0 
L 109 0 
L 109 244 
Q 188 253 364 286 
Q 541 319 653 400 
Q 778 488 822 695 
Q 866 903 866 1288 
L 866 3484 
Q 866 3684 816 3817 
Q 766 3950 666 4028 
Q 541 4125 409 4153 
Q 278 4181 144 4191 
L 144 4434 
L 2184 4434 
L 3278 1506 
L 4200 3884 
Q 4247 4016 4290 4197 
Q 4334 4378 4338 4434 
L 6303 4434 
L 6303 4191 
Q 6203 4184 6093 4165 
Q 5984 4147 5884 4116 
Q 5763 4075 5723 3987 
Q 5684 3900 5684 3794 
L 5684 653 
Q 5684 541 5723 464 
Q 5763 388 5884 331 
Q 5947 303 6089 278 
Q 6231 253 6309 244 
L 6309 0 
z
" transform="scale(0.015625)"/>
      <path id="Georgia-Bold-65" d="M 3541 747 
Q 3431 569 3276 411 
Q 3122 253 2925 141 
Q 2716 22 2502 -39 
Q 2288 -100 2009 -100 
Q 1547 -100 1211 31 
Q 875 163 656 384 
Q 438 606 330 907 
Q 222 1209 222 1563 
Q 222 1881 339 2173 
Q 456 2466 672 2694 
Q 884 2916 1207 3053 
Q 1531 3191 1931 3191 
Q 2369 3191 2650 3084 
Q 2931 2978 3116 2791 
Q 3294 2613 3375 2370 
Q 3456 2128 3456 1863 
L 3456 1659 
L 1344 1659 
Q 1344 1019 1591 684 
Q 1838 350 2375 350 
Q 2669 350 2903 511 
Q 3138 672 3303 919 
L 3541 747 
z
M 2347 1934 
Q 2347 2122 2328 2319 
Q 2309 2516 2263 2641 
Q 2209 2788 2117 2863 
Q 2025 2938 1884 2938 
Q 1644 2938 1500 2694 
Q 1356 2450 1344 1922 
L 2347 1934 
z
" transform="scale(0.015625)"/>
      <path id="Georgia-Bold-61" d="M 3753 66 
Q 3616 6 3428 -44 
Q 3241 -94 3031 -94 
Q 2647 -94 2465 20 
Q 2284 134 2219 347 
L 2200 347 
Q 2094 241 1995 166 
Q 1897 91 1784 38 
Q 1638 -31 1502 -64 
Q 1366 -97 1122 -97 
Q 759 -97 503 117 
Q 247 331 247 684 
Q 247 888 303 1030 
Q 359 1172 463 1281 
Q 556 1381 679 1447 
Q 803 1513 950 1569 
Q 1231 1672 1625 1783 
Q 2019 1894 2200 1981 
L 2200 2281 
Q 2200 2359 2187 2487 
Q 2175 2616 2134 2703 
Q 2091 2803 1997 2872 
Q 1903 2941 1750 2941 
Q 1613 2941 1520 2902 
Q 1428 2863 1372 2822 
Q 1381 2759 1425 2631 
Q 1469 2503 1469 2384 
Q 1469 2331 1441 2251 
Q 1413 2172 1359 2125 
Q 1288 2063 1198 2028 
Q 1109 1994 925 1994 
Q 663 1994 528 2120 
Q 394 2247 394 2450 
Q 394 2625 533 2764 
Q 672 2903 872 2994 
Q 1069 3088 1325 3139 
Q 1581 3191 1800 3191 
Q 2103 3191 2356 3155 
Q 2609 3119 2813 3006 
Q 3006 2897 3120 2689 
Q 3234 2481 3234 2147 
Q 3234 1794 3220 1309 
Q 3206 825 3206 672 
Q 3206 531 3248 450 
Q 3291 369 3378 328 
Q 3431 303 3545 298 
Q 3659 294 3753 294 
L 3753 66 
z
M 2200 1694 
Q 2025 1634 1853 1557 
Q 1681 1481 1572 1397 
Q 1456 1309 1390 1173 
Q 1325 1038 1325 853 
Q 1325 609 1436 500 
Q 1547 391 1709 391 
Q 1881 391 1992 461 
Q 2103 531 2188 634 
L 2200 1694 
z
" transform="scale(0.015625)"/>
      <path id="Georgia-Bold-6e" d="M 4306 0 
L 2425 0 
L 2425 228 
Q 2484 234 2568 243 
Q 2653 253 2697 275 
Q 2763 309 2791 375 
Q 2819 441 2819 569 
L 2819 2031 
Q 2819 2350 2701 2511 
Q 2584 2672 2356 2672 
Q 2231 2672 2123 2634 
Q 2016 2597 1913 2525 
Q 1822 2463 1767 2397 
Q 1713 2331 1675 2281 
L 1675 603 
Q 1675 494 1706 420 
Q 1738 347 1809 309 
Q 1859 281 1934 259 
Q 2009 238 2081 228 
L 2081 0 
L 181 0 
L 181 228 
Q 259 234 339 245 
Q 419 256 475 275 
Q 575 309 612 381 
Q 650 453 650 569 
L 650 2388 
Q 650 2484 600 2578 
Q 550 2672 469 2731 
Q 413 2769 327 2794 
Q 241 2819 138 2828 
L 138 3056 
L 1628 3138 
L 1675 3091 
L 1675 2638 
L 1688 2638 
Q 1775 2716 1900 2825 
Q 2025 2934 2131 3003 
Q 2247 3078 2434 3131 
Q 2622 3184 2834 3184 
Q 3344 3184 3598 2895 
Q 3853 2606 3853 2128 
L 3853 597 
Q 3853 481 3887 412 
Q 3922 344 4016 303 
Q 4066 281 4139 259 
Q 4213 238 4306 228 
L 4306 0 
z
" transform="scale(0.015625)"/>
      <path id="Georgia-Bold-20" transform="scale(0.015625)"/>
      <path id="Georgia-Bold-41" d="M 5028 0 
L 2613 0 
L 2613 244 
Q 2781 256 3009 304 
Q 3238 353 3238 425 
Q 3238 450 3233 481 
Q 3228 513 3206 566 
L 2828 1484 
L 1297 1484 
Q 1244 1356 1180 1184 
Q 1116 1013 1069 878 
Q 1009 703 998 625 
Q 988 547 988 516 
Q 988 416 1139 345 
Q 1291 275 1644 244 
L 1644 0 
L -175 0 
L -175 244 
Q -72 250 58 276 
Q 188 303 263 350 
Q 391 425 480 534 
Q 569 644 628 794 
Q 991 1672 1355 2553 
Q 1719 3434 2159 4497 
L 2784 4497 
Q 3397 2991 3744 2116 
Q 4091 1241 4334 666 
Q 4375 572 4437 495 
Q 4500 419 4616 350 
Q 4703 300 4818 275 
Q 4934 250 5028 244 
L 5028 0 
z
M 2700 1794 
L 2056 3400 
L 1422 1794 
L 2700 1794 
z
" transform="scale(0.015625)"/>
      <path id="Georgia-Bold-72" d="M 3294 2528 
Q 3294 2291 3147 2111 
Q 3000 1931 2759 1931 
Q 2531 1931 2373 2047 
Q 2216 2163 2216 2388 
Q 2216 2497 2231 2558 
Q 2247 2619 2259 2672 
Q 2116 2666 1956 2572 
Q 1797 2478 1675 2322 
L 1675 606 
Q 1675 497 1709 425 
Q 1744 353 1825 313 
Q 1894 278 2048 254 
Q 2203 231 2272 228 
L 2272 0 
L 181 0 
L 181 228 
Q 259 234 339 245 
Q 419 256 475 275 
Q 575 309 612 381 
Q 650 453 650 569 
L 650 2388 
Q 650 2500 597 2589 
Q 544 2678 469 2731 
Q 413 2769 327 2794 
Q 241 2819 138 2828 
L 138 3056 
L 1628 3138 
L 1675 3091 
L 1675 2638 
L 1688 2638 
Q 1903 2888 2145 3030 
Q 2388 3172 2650 3172 
Q 2941 3172 3117 2992 
Q 3294 2813 3294 2528 
z
" transform="scale(0.015625)"/>
      <path id="Georgia-Bold-69" d="M 2156 0 
L 181 0 
L 181 228 
Q 263 234 341 243 
Q 419 253 475 275 
Q 575 313 615 383 
Q 656 453 656 569 
L 656 2388 
Q 656 2497 606 2580 
Q 556 2663 481 2713 
Q 425 2750 311 2784 
Q 197 2819 103 2828 
L 103 3056 
L 1634 3138 
L 1681 3091 
L 1681 609 
Q 1681 500 1728 423 
Q 1775 347 1863 309 
Q 1925 281 2000 259 
Q 2075 238 2156 228 
L 2156 0 
z
M 1700 4263 
Q 1700 4025 1517 3858 
Q 1334 3691 1084 3691 
Q 831 3691 648 3858 
Q 466 4025 466 4263 
Q 466 4500 648 4669 
Q 831 4838 1084 4838 
Q 1338 4838 1519 4669 
Q 1700 4500 1700 4263 
z
" transform="scale(0.015625)"/>
      <path id="Georgia-Bold-76" d="M 3744 2872 
Q 3603 2850 3470 2765 
Q 3338 2681 3250 2503 
Q 3031 2047 2820 1583 
Q 2609 1119 2406 684 
Q 2344 553 2264 347 
Q 2184 141 2131 -28 
L 1556 -28 
Q 1197 806 942 1356 
Q 688 1906 403 2538 
Q 338 2684 198 2768 
Q 59 2853 -84 2872 
L -84 3100 
L 1841 3100 
L 1841 2872 
Q 1734 2869 1590 2825 
Q 1447 2781 1447 2713 
Q 1447 2694 1459 2656 
Q 1472 2619 1491 2572 
Q 1591 2334 1792 1887 
Q 1994 1441 2219 947 
Q 2375 1288 2517 1614 
Q 2659 1941 2869 2447 
Q 2897 2522 2901 2569 
Q 2906 2616 2906 2631 
Q 2906 2688 2851 2730 
Q 2797 2772 2722 2803 
Q 2644 2834 2572 2850 
Q 2500 2866 2453 2872 
L 2453 3100 
L 3744 3100 
L 3744 2872 
z
" transform="scale(0.015625)"/>
      <path id="Georgia-Bold-6c" d="M 2084 0 
L 125 0 
L 125 228 
Q 206 234 282 243 
Q 359 253 419 275 
Q 519 313 555 383 
Q 591 453 591 569 
L 591 4031 
Q 591 4150 542 4251 
Q 494 4353 413 4406 
Q 350 4447 223 4484 
Q 97 4522 0 4528 
L 0 4756 
L 1572 4838 
L 1619 4788 
L 1619 609 
Q 1619 494 1659 422 
Q 1700 350 1791 309 
Q 1853 281 1922 259 
Q 1991 238 2084 228 
L 2084 0 
z
" transform="scale(0.015625)"/>
      <path id="Georgia-Bold-44" d="M 4209 3978 
Q 4616 3713 4866 3270 
Q 5116 2828 5116 2188 
Q 5116 1625 4892 1208 
Q 4669 791 4300 525 
Q 3925 259 3448 129 
Q 2972 0 2450 0 
L 216 0 
L 216 244 
Q 316 247 466 262 
Q 616 278 666 300 
Q 778 347 822 426 
Q 866 506 866 619 
L 866 3763 
Q 866 3869 825 3955 
Q 784 4041 666 4094 
Q 547 4147 414 4165 
Q 281 4184 209 4191 
L 209 4434 
L 2569 4434 
Q 2947 4434 3378 4337 
Q 3809 4241 4209 3978 
z
M 3572 800 
Q 3725 1050 3795 1395 
Q 3866 1741 3866 2191 
Q 3866 2631 3772 2993 
Q 3678 3356 3497 3613 
Q 3316 3869 3045 4009 
Q 2775 4150 2431 4150 
Q 2322 4150 2183 4145 
Q 2044 4141 1975 4138 
L 1975 772 
Q 1975 659 2004 573 
Q 2034 488 2106 422 
Q 2178 356 2283 320 
Q 2388 284 2556 284 
Q 2909 284 3162 415 
Q 3416 547 3572 800 
z
" transform="scale(0.015625)"/>
      <path id="Georgia-Bold-79" d="M 3713 2872 
Q 3572 2850 3439 2765 
Q 3306 2681 3219 2503 
Q 2950 1934 2665 1292 
Q 2381 650 2034 -97 
Q 1841 -516 1659 -766 
Q 1478 -1016 1319 -1150 
Q 1169 -1275 1022 -1331 
Q 875 -1388 725 -1388 
Q 428 -1388 245 -1222 
Q 63 -1056 63 -850 
Q 63 -763 83 -688 
Q 103 -613 169 -531 
Q 219 -463 323 -414 
Q 428 -366 559 -366 
Q 734 -366 893 -487 
Q 1053 -609 1225 -825 
Q 1328 -722 1479 -517 
Q 1631 -313 1703 -97 
Q 1331 684 1043 1257 
Q 756 1831 400 2538 
Q 322 2688 190 2770 
Q 59 2853 -88 2872 
L -88 3100 
L 1825 3100 
L 1825 2872 
Q 1719 2869 1580 2825 
Q 1441 2781 1441 2713 
Q 1441 2688 1450 2658 
Q 1459 2628 1484 2572 
Q 1591 2353 1786 1964 
Q 1981 1575 2241 1053 
Q 2434 1497 2570 1817 
Q 2706 2138 2834 2447 
Q 2866 2525 2870 2570 
Q 2875 2616 2875 2631 
Q 2875 2688 2820 2730 
Q 2766 2772 2691 2803 
Q 2613 2834 2541 2850 
Q 2469 2866 2422 2872 
L 2422 3100 
L 3713 3100 
L 3713 2872 
z
" transform="scale(0.015625)"/>
      <path id="Georgia-Bold-62" d="M 3909 1528 
Q 3909 825 3445 362 
Q 2981 -100 2269 -100 
Q 1994 -100 1795 -61 
Q 1597 -22 1459 34 
Q 1316 94 1230 151 
Q 1144 209 1094 247 
L 647 -159 
L 463 -88 
Q 478 141 489 408 
Q 500 675 500 1128 
L 500 4053 
Q 500 4172 451 4273 
Q 403 4375 322 4428 
Q 263 4466 148 4494 
Q 34 4522 -63 4528 
L -63 4756 
L 1481 4838 
L 1528 4788 
L 1528 2756 
L 1547 2756 
Q 1775 2978 2015 3081 
Q 2256 3184 2497 3184 
Q 3153 3184 3531 2737 
Q 3909 2291 3909 1528 
z
M 2788 1491 
Q 2788 1728 2752 1948 
Q 2716 2169 2631 2338 
Q 2547 2506 2409 2607 
Q 2272 2709 2069 2709 
Q 1878 2709 1753 2646 
Q 1628 2584 1528 2463 
L 1528 644 
Q 1547 581 1598 479 
Q 1650 378 1703 322 
Q 1778 241 1862 198 
Q 1947 156 2100 156 
Q 2419 156 2603 504 
Q 2788 853 2788 1491 
z
" transform="scale(0.015625)"/>
      <path id="Georgia-Bold-56" d="M 5006 4184 
Q 4903 4175 4809 4147 
Q 4716 4119 4616 4059 
Q 4481 3981 4407 3892 
Q 4334 3803 4263 3647 
Q 4166 3431 3991 3017 
Q 3816 2603 3591 2075 
Q 3391 1600 3158 1034 
Q 2925 469 2713 -50 
L 2084 -50 
Q 1647 1022 1194 2128 
Q 741 3234 556 3666 
Q 484 3822 417 3901 
Q 350 3981 203 4066 
Q 97 4125 15 4148 
Q -66 4172 -200 4191 
L -200 4434 
L 2203 4434 
L 2203 4197 
Q 1866 4156 1745 4111 
Q 1625 4066 1625 3997 
Q 1625 3963 1636 3923 
Q 1647 3884 1669 3819 
Q 1769 3544 2031 2920 
Q 2294 2297 2809 1019 
Q 3125 1797 3334 2334 
Q 3544 2872 3703 3284 
Q 3781 3484 3832 3657 
Q 3884 3831 3884 3919 
Q 3884 4019 3740 4086 
Q 3597 4153 3209 4184 
L 3209 4434 
L 5006 4434 
L 5006 4184 
z
" transform="scale(0.015625)"/>
      <path id="Georgia-Bold-54" d="M 4338 3166 
L 4097 3166 
Q 4000 3450 3786 3775 
Q 3572 4100 3391 4125 
Q 3291 4138 3144 4147 
Q 2997 4156 2891 4156 
L 2744 4156 
L 2744 678 
Q 2744 566 2784 480 
Q 2825 394 2944 344 
Q 3016 316 3167 286 
Q 3319 256 3425 244 
L 3425 0 
L 953 0 
L 953 244 
Q 1044 253 1208 270 
Q 1372 288 1431 313 
Q 1553 363 1593 447 
Q 1634 531 1634 647 
L 1634 4156 
L 1488 4156 
Q 1381 4156 1234 4147 
Q 1088 4138 988 4125 
Q 806 4100 592 3775 
Q 378 3450 281 3166 
L 41 3166 
L 41 4434 
L 4338 4434 
L 4338 3166 
z
" transform="scale(0.015625)"/>
      <path id="Georgia-Bold-53" d="M 2075 -119 
Q 1669 -119 1317 -19 
Q 966 81 722 219 
L 506 0 
L 241 0 
L 200 1603 
L 469 1603 
Q 559 1375 700 1122 
Q 841 869 1025 669 
Q 1216 459 1452 328 
Q 1688 197 2003 197 
Q 2428 197 2654 405 
Q 2881 613 2881 928 
Q 2881 1188 2689 1364 
Q 2497 1541 2094 1669 
Q 1831 1753 1611 1825 
Q 1391 1897 1197 1972 
Q 750 2150 533 2481 
Q 316 2813 316 3222 
Q 316 3481 428 3720 
Q 541 3959 756 4150 
Q 963 4328 1284 4440 
Q 1606 4553 1984 4553 
Q 2353 4553 2675 4451 
Q 2997 4350 3181 4247 
L 3372 4434 
L 3644 4434 
L 3669 2922 
L 3400 2922 
Q 3306 3166 3179 3420 
Q 3053 3675 2913 3844 
Q 2759 4025 2559 4133 
Q 2359 4241 2091 4241 
Q 1753 4241 1539 4050 
Q 1325 3859 1325 3578 
Q 1325 3313 1511 3144 
Q 1697 2975 2091 2847 
Q 2322 2769 2562 2691 
Q 2803 2613 2991 2541 
Q 3444 2366 3680 2058 
Q 3916 1750 3916 1294 
Q 3916 1006 3781 737 
Q 3647 469 3419 291 
Q 3169 94 2841 -12 
Q 2513 -119 2075 -119 
z
" transform="scale(0.015625)"/>
      <path id="Georgia-Bold-74" d="M 2506 144 
Q 2306 56 2078 -14 
Q 1850 -84 1522 -84 
Q 1034 -84 798 153 
Q 563 391 563 831 
L 563 2750 
L 0 2750 
L 0 3088 
L 575 3088 
L 575 4034 
L 1591 4034 
L 1591 3088 
L 2466 3088 
L 2466 2750 
L 1597 2750 
L 1597 1038 
Q 1597 672 1698 519 
Q 1800 366 2063 366 
Q 2147 366 2297 378 
Q 2447 391 2506 406 
L 2506 144 
z
" transform="scale(0.015625)"/>
      <path id="Georgia-Bold-75" d="M 4259 66 
L 2769 -25 
L 2722 19 
L 2722 428 
L 2703 428 
Q 2597 331 2495 239 
Q 2394 147 2253 72 
Q 2094 -13 1951 -53 
Q 1809 -94 1538 -94 
Q 1066 -94 814 190 
Q 563 475 563 994 
L 563 2400 
Q 563 2522 516 2598 
Q 469 2675 391 2734 
Q 328 2781 228 2801 
Q 128 2822 47 2828 
L 47 3056 
L 1563 3138 
L 1597 3091 
L 1597 1013 
Q 1597 691 1720 537 
Q 1844 384 2059 384 
Q 2281 384 2457 500 
Q 2634 616 2716 747 
L 2716 2431 
Q 2716 2538 2675 2622 
Q 2634 2706 2556 2759 
Q 2500 2797 2395 2809 
Q 2291 2822 2181 2828 
L 2181 3056 
L 3697 3138 
L 3744 3091 
L 3744 678 
Q 3744 569 3787 492 
Q 3831 416 3916 363 
Q 3975 325 4070 311 
Q 4166 297 4259 294 
L 4259 66 
z
" transform="scale(0.015625)"/>
      <path id="Georgia-Bold-64" d="M 4222 66 
L 2681 -25 
L 2634 19 
L 2634 306 
L 2613 313 
Q 2459 147 2198 23 
Q 1938 -100 1672 -100 
Q 1041 -100 631 369 
Q 222 838 222 1581 
Q 222 2241 680 2712 
Q 1138 3184 1788 3184 
Q 2044 3184 2269 3126 
Q 2494 3069 2628 2991 
L 2628 4013 
Q 2628 4128 2581 4229 
Q 2534 4331 2456 4388 
Q 2359 4456 2214 4486 
Q 2069 4516 1922 4528 
L 1922 4756 
L 3609 4838 
L 3656 4788 
L 3656 691 
Q 3656 572 3695 490 
Q 3734 409 3822 363 
Q 3888 328 4014 312 
Q 4141 297 4222 294 
L 4222 66 
z
M 2628 622 
L 2628 2388 
Q 2606 2459 2567 2546 
Q 2528 2634 2459 2713 
Q 2397 2778 2292 2828 
Q 2188 2878 2056 2878 
Q 1744 2878 1544 2525 
Q 1344 2172 1344 1528 
Q 1344 1275 1380 1073 
Q 1416 872 1506 706 
Q 1597 541 1739 447 
Q 1881 353 2081 353 
Q 2272 353 2397 426 
Q 2522 500 2628 622 
z
" transform="scale(0.015625)"/>
      <path id="Georgia-Bold-52" d="M 5306 0 
L 3606 0 
Q 3166 675 2873 1075 
Q 2581 1475 2147 2000 
L 1975 2000 
L 1975 653 
Q 1975 541 2017 462 
Q 2059 384 2178 331 
Q 2238 306 2364 279 
Q 2491 253 2581 244 
L 2581 0 
L 216 0 
L 216 244 
Q 306 253 454 270 
Q 603 288 666 313 
Q 784 363 825 439 
Q 866 516 866 634 
L 866 3763 
Q 866 3875 831 3950 
Q 797 4025 666 4081 
Q 566 4122 430 4150 
Q 294 4178 216 4191 
L 216 4434 
L 2703 4434 
Q 3538 4434 3970 4173 
Q 4403 3913 4403 3384 
Q 4403 2919 4136 2636 
Q 3869 2353 3322 2194 
Q 3534 1919 3817 1556 
Q 4100 1194 4406 816 
Q 4503 694 4670 517 
Q 4838 341 4966 300 
Q 5038 278 5148 262 
Q 5259 247 5306 244 
L 5306 0 
z
M 3178 3297 
Q 3178 3741 2929 3945 
Q 2681 4150 2222 4150 
L 1975 4150 
L 1975 2294 
L 2213 2294 
Q 2672 2294 2925 2534 
Q 3178 2775 3178 3297 
z
" transform="scale(0.015625)"/>
      <path id="Georgia-Bold-6f" d="M 3372 2731 
Q 3603 2516 3725 2216 
Q 3847 1916 3847 1566 
Q 3847 1219 3726 911 
Q 3606 603 3375 384 
Q 3128 150 2786 25 
Q 2444 -100 2003 -100 
Q 1622 -100 1301 9 
Q 981 119 734 338 
Q 497 547 359 855 
Q 222 1163 222 1544 
Q 222 1919 342 2211 
Q 463 2503 703 2731 
Q 934 2950 1273 3070 
Q 1613 3191 2031 3191 
Q 2469 3191 2801 3070 
Q 3134 2950 3372 2731 
z
M 2572 566 
Q 2641 741 2673 991 
Q 2706 1241 2706 1572 
Q 2706 1791 2675 2072 
Q 2644 2353 2581 2516 
Q 2506 2713 2373 2825 
Q 2241 2938 2038 2938 
Q 1816 2938 1683 2816 
Q 1550 2694 1478 2500 
Q 1413 2322 1388 2083 
Q 1363 1844 1363 1584 
Q 1363 1244 1384 1020 
Q 1406 797 1491 572 
Q 1563 378 1697 265 
Q 1831 153 2038 153 
Q 2225 153 2359 258 
Q 2494 363 2572 566 
z
" transform="scale(0.015625)"/>
     </defs>
     <use xlink:href="#Georgia-Bold-4d"/>
     <use xlink:href="#Georgia-Bold-65" transform="translate(102.34375 0)"/>
     <use xlink:href="#Georgia-Bold-61" transform="translate(159.521484 0)"/>
     <use xlink:href="#Georgia-Bold-6e" transform="translate(219.091797 0)"/>
     <use xlink:href="#Georgia-Bold-20" transform="translate(288.085938 0)"/>
     <use xlink:href="#Georgia-Bold-41" transform="translate(313.476562 0)"/>
     <use xlink:href="#Georgia-Bold-72" transform="translate(389.306641 0)"/>
     <use xlink:href="#Georgia-Bold-72" transform="translate(441.308594 0)"/>
     <use xlink:href="#Georgia-Bold-69" transform="translate(493.310547 0)"/>
     <use xlink:href="#Georgia-Bold-76" transform="translate(528.662109 0)"/>
     <use xlink:href="#Georgia-Bold-61" transform="translate(585.351562 0)"/>
     <use xlink:href="#Georgia-Bold-6c" transform="translate(644.921875 0)"/>
     <use xlink:href="#Georgia-Bold-20" transform="translate(679.345703 0)"/>
     <use xlink:href="#Georgia-Bold-44" transform="translate(704.736328 0)"/>
     <use xlink:href="#Georgia-Bold-65" transform="translate(788.134766 0)"/>
     <use xlink:href="#Georgia-Bold-6c" transform="translate(845.3125 0)"/>
     <use xlink:href="#Georgia-Bold-61" transform="translate(879.736328 0)"/>
     <use xlink:href="#Georgia-Bold-79" transform="translate(939.306641 0)"/>
     <use xlink:href="#Georgia-Bold-20" transform="translate(995.507812 0)"/>
     <use xlink:href="#Georgia-Bold-62" transform="translate(1020.898438 0)"/>
     <use xlink:href="#Georgia-Bold-79" transform="translate(1085.449219 0)"/>
     <use xlink:href="#Georgia-Bold-20" transform="translate(1141.650391 0)"/>
     <use xlink:href="#Georgia-Bold-56" transform="translate(1167.041016 0)"/>
     <use xlink:href="#Georgia-Bold-54" transform="translate(1243.261719 0)"/>
     <use xlink:href="#Georgia-Bold-41" transform="translate(1311.669922 0)"/>
     <use xlink:href="#Georgia-Bold-20" transform="translate(1387.5 0)"/>
     <use xlink:href="#Georgia-Bold-53" transform="translate(1412.890625 0)"/>
     <use xlink:href="#Georgia-Bold-74" transform="translate(1477.783203 0)"/>
     <use xlink:href="#Georgia-Bold-75" transform="translate(1517.529297 0)"/>
     <use xlink:href="#Georgia-Bold-64" transform="translate(1585.205078 0)"/>
     <use xlink:href="#Georgia-Bold-79" transform="translate(1651.513672 0)"/>
     <use xlink:href="#Georgia-Bold-20" transform="translate(1707.714844 0)"/>
     <use xlink:href="#Georgia-Bold-52" transform="translate(1733.105469 0)"/>
     <use xlink:href="#Georgia-Bold-6f" transform="translate(1812.841797 0)"/>
     <use xlink:href="#Georgia-Bold-75" transform="translate(1876.416016 0)"/>
     <use xlink:href="#Georgia-Bold-74" transform="translate(1944.091797 0)"/>
     <use xlink:href="#Georgia-Bold-65" transform="translate(1983.837891 0)"/>
    </g>
   </g>
   <g id="LineCollection_1">
    <path d="M 132.535235 255.725553 
L 164.697369 255.725553 
" clip-path="url(#p70af6788a7)" style="fill: none; stroke: #cccccc; stroke-width: 1.1"/>
    <path d="M 186.993775 215.859519 
L 227.016182 215.859519 
" clip-path="url(#p70af6788a7)" style="fill: none; stroke: #cccccc; stroke-width: 1.1"/>
    <path d="M 422.127598 175.993485 
L 435.426313 175.993485 
" clip-path="url(#p70af6788a7)" style="fill: none; stroke: #cccccc; stroke-width: 1.1"/>
    <path d="M 456.217528 136.12745 
L 470.640132 136.12745 
" clip-path="url(#p70af6788a7)" style="fill: none; stroke: #cccccc; stroke-width: 1.1"/>
    <path d="M 527.496532 96.261416 
L 551.76748 96.261416 
" clip-path="url(#p70af6788a7)" style="fill: none; stroke: #cccccc; stroke-width: 1.1"/>
    <path d="M 581.369867 56.395382 
L 614.585654 56.395382 
" clip-path="url(#p70af6788a7)" style="fill: none; stroke: #cccccc; stroke-width: 1.1"/>
   </g>
   <g id="line2d_18">
    <defs>
     <path id="me851e45e79" d="M 0 3 
L 0 -3 
" style="stroke: #cccccc; stroke-width: 1.1"/>
    </defs>
    <g clip-path="url(#p70af6788a7)">
     <use xlink:href="#me851e45e79" x="132.535235" y="255.725553" style="fill: #cccccc; stroke: #cccccc; stroke-width: 1.1"/>
     <use xlink:href="#me851e45e79" x="186.993775" y="215.859519" style="fill: #cccccc; stroke: #cccccc; stroke-width: 1.1"/>
     <use xlink:href="#me851e45e79" x="422.127598" y="175.993485" style="fill: #cccccc; stroke: #cccccc; stroke-width: 1.1"/>
     <use xlink:href="#me851e45e79" x="456.217528" y="136.12745" style="fill: #cccccc; stroke: #cccccc; stroke-width: 1.1"/>
     <use xlink:href="#me851e45e79" x="527.496532" y="96.261416" style="fill: #cccccc; stroke: #cccccc; stroke-width: 1.1"/>
     <use xlink:href="#me851e45e79" x="581.369867" y="56.395382" style="fill: #cccccc; stroke: #cccccc; stroke-width: 1.1"/>
    </g>
   </g>
   <g id="line2d_19">
    <g clip-path="url(#p70af6788a7)">
     <use xlink:href="#me851e45e79" x="164.697369" y="255.725553" style="fill: #cccccc; stroke: #cccccc; stroke-width: 1.1"/>
     <use xlink:href="#me851e45e79" x="227.016182" y="215.859519" style="fill: #cccccc; stroke: #cccccc; stroke-width: 1.1"/>
     <use xlink:href="#me851e45e79" x="435.426313" y="175.993485" style="fill: #cccccc; stroke: #cccccc; stroke-width: 1.1"/>
     <use xlink:href="#me851e45e79" x="470.640132" y="136.12745" style="fill: #cccccc; stroke: #cccccc; stroke-width: 1.1"/>
     <use xlink:href="#me851e45e79" x="551.76748" y="96.261416" style="fill: #cccccc; stroke: #cccccc; stroke-width: 1.1"/>
     <use xlink:href="#me851e45e79" x="614.585654" y="56.395382" style="fill: #cccccc; stroke: #cccccc; stroke-width: 1.1"/>
    </g>
   </g>
   <g id="legend_1">
    <g id="patch_11">
     <path d="M 547.051563 254.10156 
L 556.051563 254.10156 
L 556.051563 247.21656 
L 547.051563 247.21656 
z
" style="fill: #c94f2a"/>
    </g>
    <g id="text_23">
     <!-- Local routes (22 / 23 / 25 / 60) -->
     <g style="fill: #b0b0b0" transform="translate(563.251563 253.78656) scale(0.09 -0.09)">
      <defs>
       <path id="Georgia-4c" d="M 3866 1319 
L 3772 0 
L 306 0 
L 306 222 
Q 381 228 523 243 
Q 666 259 722 284 
Q 816 325 858 403 
Q 900 481 900 603 
L 900 3778 
Q 900 3884 864 3965 
Q 828 4047 722 4097 
Q 650 4134 520 4170 
Q 391 4206 306 4213 
L 306 4434 
L 2178 4434 
L 2178 4213 
Q 2091 4209 1952 4181 
Q 1813 4153 1750 4131 
Q 1644 4094 1605 4003 
Q 1566 3913 1566 3809 
L 1566 831 
Q 1566 625 1586 511 
Q 1606 397 1681 334 
Q 1753 278 1895 261 
Q 2038 244 2294 244 
Q 2409 244 2534 250 
Q 2659 256 2772 275 
Q 2881 294 2973 326 
Q 3066 359 3109 409 
Q 3238 553 3408 845 
Q 3578 1138 3644 1319 
L 3866 1319 
z
" transform="scale(0.015625)"/>
       <path id="Georgia-75" d="M 3528 56 
L 2525 -13 
L 2478 31 
L 2478 422 
L 2459 422 
Q 2384 344 2290 255 
Q 2197 166 2075 94 
Q 1934 9 1803 -34 
Q 1672 -78 1431 -78 
Q 1022 -78 808 189 
Q 594 456 594 966 
L 594 2441 
Q 594 2553 551 2629 
Q 509 2706 428 2763 
Q 372 2800 287 2817 
Q 203 2834 109 2841 
L 109 3044 
L 1138 3119 
L 1184 3075 
L 1184 934 
Q 1184 600 1334 431 
Q 1484 263 1694 263 
Q 1866 263 2000 316 
Q 2134 369 2225 441 
Q 2309 506 2373 579 
Q 2438 653 2472 716 
L 2472 2463 
Q 2472 2566 2428 2645 
Q 2384 2725 2306 2781 
Q 2250 2819 2139 2826 
Q 2028 2834 1891 2841 
L 1891 3044 
L 3009 3119 
L 3056 3075 
L 3056 628 
Q 3056 522 3100 447 
Q 3144 372 3222 319 
Q 3278 284 3356 273 
Q 3434 263 3528 259 
L 3528 56 
z
" transform="scale(0.015625)"/>
       <path id="Georgia-2f" d="M 2719 4759 
L 559 -1325 
L 153 -1325 
L 2306 4759 
L 2719 4759 
z
" transform="scale(0.015625)"/>
      </defs>
      <use xlink:href="#Georgia-4c"/>
      <use xlink:href="#Georgia-6f" transform="translate(60.351562 0)"/>
      <use xlink:href="#Georgia-63" transform="translate(114.257812 0)"/>
      <use xlink:href="#Georgia-61" transform="translate(159.667969 0)"/>
      <use xlink:href="#Georgia-6c" transform="translate(210.058594 0)"/>
      <use xlink:href="#Georgia-20" transform="translate(238.671875 0)"/>
      <use xlink:href="#Georgia-72" transform="translate(262.792969 0)"/>
      <use xlink:href="#Georgia-6f" transform="translate(303.759766 0)"/>
      <use xlink:href="#Georgia-75" transform="translate(357.666016 0)"/>
      <use xlink:href="#Georgia-74" transform="translate(415.185547 0)"/>
      <use xlink:href="#Georgia-65" transform="translate(449.707031 0)"/>
      <use xlink:href="#Georgia-73" transform="translate(498.046875 0)"/>
      <use xlink:href="#Georgia-20" transform="translate(541.259766 0)"/>
      <use xlink:href="#Georgia-28" transform="translate(565.380859 0)"/>
      <use xlink:href="#Georgia-32" transform="translate(602.880859 0)"/>
      <use xlink:href="#Georgia-32" transform="translate(658.740234 0)"/>
      <use xlink:href="#Georgia-20" transform="translate(714.599609 0)"/>
      <use xlink:href="#Georgia-2f" transform="translate(738.720703 0)"/>
      <use xlink:href="#Georgia-20" transform="translate(785.595703 0)"/>
      <use xlink:href="#Georgia-32" transform="translate(809.716797 0)"/>
      <use xlink:href="#Georgia-33" transform="translate(865.576172 0)"/>
      <use xlink:href="#Georgia-20" transform="translate(920.751953 0)"/>
      <use xlink:href="#Georgia-2f" transform="translate(944.873047 0)"/>
      <use xlink:href="#Georgia-20" transform="translate(991.748047 0)"/>
      <use xlink:href="#Georgia-32" transform="translate(1015.869141 0)"/>
      <use xlink:href="#Georgia-35" transform="translate(1071.728516 0)"/>
      <use xlink:href="#Georgia-20" transform="translate(1124.560547 0)"/>
      <use xlink:href="#Georgia-2f" transform="translate(1148.681641 0)"/>
      <use xlink:href="#Georgia-20" transform="translate(1195.556641 0)"/>
      <use xlink:href="#Georgia-36" transform="translate(1219.677734 0)"/>
      <use xlink:href="#Georgia-30" transform="translate(1276.269531 0)"/>
      <use xlink:href="#Georgia-29" transform="translate(1337.646484 0)"/>
     </g>
    </g>
    <g id="patch_12">
     <path d="M 547.051563 267.356872 
L 556.051563 267.356872 
L 556.051563 260.471872 
L 547.051563 260.471872 
z
" style="fill: #5b8db8"/>
    </g>
    <g id="text_24">
     <!-- Rapid routes (522 / 523) -->
     <g style="fill: #b0b0b0" transform="translate(563.251563 267.041872) scale(0.09 -0.09)">
      <use xlink:href="#Georgia-52"/>
      <use xlink:href="#Georgia-61" transform="translate(70.166016 0)"/>
      <use xlink:href="#Georgia-70" transform="translate(120.556641 0)"/>
      <use xlink:href="#Georgia-69" transform="translate(177.685547 0)"/>
      <use xlink:href="#Georgia-64" transform="translate(206.982422 0)"/>
      <use xlink:href="#Georgia-20" transform="translate(264.404297 0)"/>
      <use xlink:href="#Georgia-72" transform="translate(288.525391 0)"/>
      <use xlink:href="#Georgia-6f" transform="translate(329.492188 0)"/>
      <use xlink:href="#Georgia-75" transform="translate(383.398438 0)"/>
      <use xlink:href="#Georgia-74" transform="translate(440.917969 0)"/>
      <use xlink:href="#Georgia-65" transform="translate(475.439453 0)"/>
      <use xlink:href="#Georgia-73" transform="translate(523.779297 0)"/>
      <use xlink:href="#Georgia-20" transform="translate(566.992188 0)"/>
      <use xlink:href="#Georgia-28" transform="translate(591.113281 0)"/>
      <use xlink:href="#Georgia-35" transform="translate(628.613281 0)"/>
      <use xlink:href="#Georgia-32" transform="translate(681.445312 0)"/>
      <use xlink:href="#Georgia-32" transform="translate(737.304688 0)"/>
      <use xlink:href="#Georgia-20" transform="translate(793.164062 0)"/>
      <use xlink:href="#Georgia-2f" transform="translate(817.285156 0)"/>
      <use xlink:href="#Georgia-20" transform="translate(864.160156 0)"/>
      <use xlink:href="#Georgia-35" transform="translate(888.28125 0)"/>
      <use xlink:href="#Georgia-32" transform="translate(941.113281 0)"/>
      <use xlink:href="#Georgia-33" transform="translate(996.972656 0)"/>
      <use xlink:href="#Georgia-29" transform="translate(1052.148438 0)"/>
     </g>
    </g>
   </g>
  </g>
 </g>
 <defs>
  <clipPath id="p70af6788a7">
   <rect x="51.477031" y="35.027187" width="643.64" height="242.06656"/>
  </clipPath>
 </defs>
</svg>
